<svg width="50" height="50" viewBox="0 0 50 50" fill="none" xmlns="http://www.w3.org/2000/svg">
    <path d="M29.167 18.75a3.125 3.125 0 1 1 6.25 0 3.125 3.125 0 0 1-6.25 0z" fill="#000"/>
    <path fill-rule="evenodd" clip-rule="evenodd" d="M15.14 9.706c6.561-.57 13.159-.57 19.72 0l3.146.273a6.538 6.538 0 0 1 5.898 5.541 63.752 63.752 0 0 1 0 18.96 6.538 6.538 0 0 1-5.898 5.541l-3.147.274c-6.56.57-13.158.57-19.718 0l-3.147-.274a6.538 6.538 0 0 1-5.898-5.54 63.753 63.753 0 0 1 0-18.961 6.538 6.538 0 0 1 5.898-5.54l3.147-.274zm19.449 3.113a110.73 110.73 0 0 0-19.178 0l-3.146.273a3.413 3.413 0 0 0-3.08 2.893 60.627 60.627 0 0 0-.648 10.768l8.066-8.066a1.562 1.562 0 0 1 2.273.067l7.649 8.605 5.273-1.758a1.562 1.562 0 0 1 1.655.437l7.331 8.146c.012-.055.022-.111.03-.168a60.625 60.625 0 0 0 0-18.031 3.413 3.413 0 0 0-3.079-2.893l-3.146-.273zm4.203 23.823-6.977-7.753-5.28 1.76a1.563 1.563 0 0 1-1.661-.444l-7.233-8.136-8.84 8.84c.101 1.038.23 2.074.385 3.107a3.413 3.413 0 0 0 3.079 2.892l3.146.274c6.38.554 12.797.554 19.178 0l3.146-.274a3.407 3.407 0 0 0 1.057-.266z" fill="#000"/>
</svg>
