<svg width="47" height="47" viewBox="0 0 47 47" fill="none" xmlns="http://www.w3.org/2000/svg">
    <path d="M19.583 17.625a3.917 3.917 0 1 1 7.834 0 3.917 3.917 0 0 1-7.834 0zM21.542 24.48a5.875 5.875 0 0 0-5.875 5.874c0 1.082.876 1.959 1.958 1.959h11.75a1.958 1.958 0 0 0 1.958-1.959 5.875 5.875 0 0 0-5.875-5.875h-3.916z" fill="#000"/>
    <path fill-rule="evenodd" clip-rule="evenodd" d="M14.773 5.645a61.358 61.358 0 0 1 17.454 0 6.26 6.26 0 0 1 5.344 5.63l.249 2.733c.574 6.315.574 12.67 0 18.984l-.249 2.734a6.26 6.26 0 0 1-5.344 5.629 61.357 61.357 0 0 1-17.454 0 6.26 6.26 0 0 1-5.344-5.63l-.249-2.733a104.78 104.78 0 0 1 0-18.984l.249-2.734a6.26 6.26 0 0 1 5.344-5.629zM31.81 8.553a58.42 58.42 0 0 0-16.62 0 3.322 3.322 0 0 0-2.836 2.987l-.248 2.734a101.836 101.836 0 0 0 0 18.452l.248 2.734a3.322 3.322 0 0 0 2.837 2.987 58.417 58.417 0 0 0 16.618 0 3.322 3.322 0 0 0 2.837-2.987l.248-2.734c.559-6.138.559-12.314 0-18.452l-.248-2.733a3.322 3.322 0 0 0-2.837-2.988z" fill="#000"/>
</svg>
