<svg width="35" height="35" viewBox="0 0 50 50" fill="none" xmlns="http://www.w3.org/2000/svg">
    <path d="M28.78 18.472a3.125 3.125 0 1 1 6.25 0 3.125 3.125 0 0 1-6.25 0z" fill="#000"/>
    <path fill-rule="evenodd" clip-rule="evenodd" d="M14.754 9.428c6.56-.57 13.158-.57 19.719 0l3.146.273a6.538 6.538 0 0 1 5.899 5.541 63.758 63.758 0 0 1 0 18.96 6.538 6.538 0 0 1-5.9 5.542l-3.145.273c-6.56.57-13.159.57-19.719 0l-3.146-.273a6.538 6.538 0 0 1-5.9-5.541 63.752 63.752 0 0 1 0-18.96 6.538 6.538 0 0 1 5.9-5.542l3.146-.273zm19.448 3.113a110.71 110.71 0 0 0-19.177 0l-3.147.274A3.413 3.413 0 0 0 8.8 15.707a60.628 60.628 0 0 0-.649 10.769l8.067-8.067a1.563 1.563 0 0 1 2.272.067l7.65 8.605 5.272-1.758a1.563 1.563 0 0 1 1.655.438l7.332 8.146c.011-.056.021-.112.03-.17a60.624 60.624 0 0 0 0-18.03 3.413 3.413 0 0 0-3.08-2.893l-3.146-.273zm4.203 23.823-6.977-7.752-5.279 1.76a1.563 1.563 0 0 1-1.662-.445l-7.232-8.136-8.841 8.84c.101 1.038.23 2.074.385 3.107a3.413 3.413 0 0 0 3.08 2.892l3.146.274c6.38.554 12.797.554 19.177 0l3.146-.274a3.407 3.407 0 0 0 1.057-.266z" fill="#000"/>
</svg>
