<svg width="50" height="50" viewBox="0 0 50 50" fill="none" xmlns="http://www.w3.org/2000/svg">
    <path fill-rule="evenodd" clip-rule="evenodd" d="M29.969 32.178c-5.522 4.422-13.604 4.074-18.722-1.044-5.492-5.492-5.492-14.396 0-19.887 5.491-5.492 14.395-5.492 19.887 0 5.118 5.118 5.466 13.2 1.044 18.722l10.741 10.74a1.562 1.562 0 1 1-2.21 2.21L29.97 32.18zm-16.513-3.254c-4.27-4.271-4.27-11.196 0-15.468 4.272-4.27 11.197-4.27 15.468 0 4.269 4.269 4.272 11.187.01 15.459l-.01.01a.417.417 0 0 0-.009.009c-4.272 4.262-11.19 4.259-15.459-.01z" fill="#000"/>
</svg>
