<svg width="35" height="35" viewBox="0 0 50 50" fill="none" xmlns="http://www.w3.org/2000/svg">
    <path fill-rule="evenodd" clip-rule="evenodd" d="M29.84 32.05c-5.52 4.422-13.603 4.075-18.721-1.044-5.492-5.492-5.492-14.395 0-19.887 5.492-5.492 14.395-5.492 19.887 0 5.118 5.118 5.466 13.2 1.044 18.722l10.741 10.74a1.562 1.562 0 1 1-2.21 2.21l-10.74-10.74zm-16.512-3.253c-4.27-4.272-4.27-11.197 0-15.469 4.272-4.27 11.197-4.27 15.469 0 4.268 4.269 4.27 11.187.009 15.46l-.01.008-.009.01c-4.272 4.262-11.19 4.259-15.458-.01z" fill="#000"/>
</svg>
