<svg width="47" height="47" viewBox="0 0 47 47" fill="none" xmlns="http://www.w3.org/2000/svg">
    <path fill-rule="evenodd" clip-rule="evenodd" d="m23.5 6.03-4.333 4.484a2.448 2.448 0 0 1-1.76.746H11.26v6.146c0 .664-.27 1.3-.747 1.76L6.03 23.5l4.484 4.333c.477.462.747 1.097.747 1.76v6.147h6.146c.663 0 1.299.27 1.76.746L23.5 40.97l4.334-4.484a2.448 2.448 0 0 1 1.76-.746h6.146v-6.147c0-.663.27-1.298.746-1.76L40.97 23.5l-4.483-4.333a2.448 2.448 0 0 1-.747-1.76V11.26h-6.146c-.664 0-1.3-.27-1.76-.746L23.5 6.03zm-1.76-2.406a2.448 2.448 0 0 1 3.52 0l4.541 4.699h6.428a2.448 2.448 0 0 1 2.448 2.448v6.428l4.699 4.54a2.448 2.448 0 0 1 0 3.521l-4.699 4.541v6.428a2.448 2.448 0 0 1-2.448 2.448h-6.427l-4.542 4.699a2.448 2.448 0 0 1-3.52 0l-4.541-4.699h-6.428a2.448 2.448 0 0 1-2.448-2.448v-6.428l-4.698-4.54a2.448 2.448 0 0 1 0-3.521l4.698-4.541V10.77a2.448 2.448 0 0 1 2.448-2.448H17.2l4.541-4.699z" fill="#000"/>
    <path fill-rule="evenodd" clip-rule="evenodd" d="M14.198 23.5a9.302 9.302 0 1 1 18.604 0 9.302 9.302 0 0 1-18.604 0zm9.302-6.365a6.365 6.365 0 1 0 0 12.73 6.365 6.365 0 0 0 0-12.73z" fill="#000"/>
</svg>
