<svg width="47" height="47" viewBox="0 0 47 47" fill="none" xmlns="http://www.w3.org/2000/svg">
    <path fill-rule="evenodd" clip-rule="evenodd" d="M42.016 10.606a1.47 1.47 0 0 1-.188 1.847L23.826 30.454a1.468 1.468 0 0 1-.668.383l-7.497 1.958a1.468 1.468 0 0 1-1.792-1.792l1.958-7.497c.058-.221.166-.44.316-.61l18.069-18.06a1.468 1.468 0 0 1 2.077 0l5.539 5.54c.071.071.134.148.188.23zm-3.304.808L35.25 7.952 18.569 24.633l-1.224 4.686 4.686-1.224 16.68-16.681z" fill="#000"/>
    <path d="M38.464 33.606c.536-4.578.706-9.188.511-13.786a.787.787 0 0 1 .23-.59l1.925-1.926a.388.388 0 0 1 .664.248 89.93 89.93 0 0 1-.412 16.395c-.463 3.96-3.644 7.065-7.585 7.505a93.458 93.458 0 0 1-20.594 0c-3.94-.44-7.122-3.544-7.585-7.505a89.93 89.93 0 0 1 0-20.894c.463-3.96 3.644-7.065 7.585-7.505a93.51 93.51 0 0 1 15.645-.417c.335.02.489.426.25.664l-1.943 1.944a.787.787 0 0 1-.583.23c-4.36-.148-8.75.018-13.043.498-2.605.291-4.691 2.347-4.993 4.927a86.992 86.992 0 0 0 0 20.212c.302 2.58 2.388 4.636 4.993 4.927 6.572.734 13.37.734 19.942 0 2.605-.291 4.692-2.347 4.993-4.927z" fill="#000"/>
</svg>
