<svg width="50" height="50" viewBox="0 0 50 50" fill="none" xmlns="http://www.w3.org/2000/svg">
    <path fill-rule="evenodd" clip-rule="evenodd" d="M28.245 11.53a4.687 4.687 0 0 0-6.49 0l-9.639 9.249a1.558 1.558 0 0 0-.454.843 56.963 56.963 0 0 0-.252 19.065l.234 1.5h6.201v-12.94c0-.863.7-1.562 1.563-1.562h11.184c.863 0 1.563.7 1.563 1.562v12.94h6.2l.235-1.5a56.966 56.966 0 0 0-.252-19.065 1.559 1.559 0 0 0-.454-.843l-9.639-9.25zm-8.654-2.255a7.812 7.812 0 0 1 10.818 0l9.639 9.249a4.684 4.684 0 0 1 1.364 2.534 60.09 60.09 0 0 1 .266 20.11L41.3 43.58a2.048 2.048 0 0 1-2.024 1.733h-8.685c-.863 0-1.562-.7-1.562-1.563V30.81h-8.06v12.94c0 .863-.7 1.563-1.562 1.563h-8.685a2.049 2.049 0 0 1-2.024-1.733l-.377-2.411a60.09 60.09 0 0 1 .266-20.11 4.684 4.684 0 0 1 1.364-2.535l9.639-9.249z" fill="#000"/>
</svg>
