<svg width="35" height="35" viewBox="0 0 50 50" fill="none" xmlns="http://www.w3.org/2000/svg">
    <path fill-rule="evenodd" clip-rule="evenodd" d="M28.643 10.43a4.688 4.688 0 0 0-6.491 0l-9.639 9.249a1.559 1.559 0 0 0-.454.844 56.963 56.963 0 0 0-.252 19.064l.235 1.501h6.2v-12.94c0-.863.7-1.563 1.563-1.563H30.99c.863 0 1.563.7 1.563 1.563v12.94h6.2l.235-1.501a56.969 56.969 0 0 0-.252-19.064 1.559 1.559 0 0 0-.454-.844l-9.638-9.249zm-8.655-2.255a7.812 7.812 0 0 1 10.818 0l9.639 9.249a4.684 4.684 0 0 1 1.364 2.535 60.09 60.09 0 0 1 .266 20.11l-.377 2.412a2.049 2.049 0 0 1-2.024 1.732H30.99c-.863 0-1.562-.7-1.562-1.562V29.71h-8.06v12.94c0 .862-.699 1.562-1.562 1.562H11.12a2.049 2.049 0 0 1-2.024-1.732l-.376-2.412a60.09 60.09 0 0 1 .266-20.11 4.684 4.684 0 0 1 1.364-2.535l9.638-9.249z" fill="#000"/>
</svg>
