<svg width="50" height="50" viewBox="0 0 50 50" fill="none" xmlns="http://www.w3.org/2000/svg">
<path fill-rule="evenodd" clip-rule="evenodd" d="M10.2232 23.8861C14.6113 27.1772 15.5005 33.4025 12.2093 37.7906C11.7576 38.3928 11.2393 38.9413 10.6646 39.4256L10.2232 39.7767C5.83508 36.4856 4.94586 30.2603 8.23704 25.8722C8.68873 25.27 9.20706 24.7215 9.78175 24.2372L10.2232 23.8861ZM18.1683 15.9407C22.5564 19.2319 23.4456 25.4572 20.1544 29.8453C19.7027 30.4475 19.1844 30.9959 18.6097 31.4803L18.1683 31.8314C13.7802 28.5402 12.8909 22.3149 16.1821 17.9268C16.6338 17.3246 17.1521 16.7762 17.7268 16.2918L18.1683 15.9407ZM26.1133 7.99536C30.5014 11.2865 31.3907 17.5118 28.0995 21.8999C27.6478 22.5021 27.1295 23.0506 26.5548 23.535L26.1133 23.8861C21.7252 20.5949 20.836 14.3696 24.1272 9.98149C24.5789 9.37926 25.0972 8.83082 25.6719 8.34646L26.1133 7.99536ZM42.0035 23.8861C38.7127 28.274 32.4878 29.1634 28.0998 25.8725C27.4975 25.4208 26.9489 24.9024 26.4645 24.3276L26.1133 23.8861C29.4042 19.4981 35.6291 18.6087 40.017 21.8996C40.6194 22.3513 41.1679 22.8697 41.6523 23.4445L42.0035 23.8861ZM34.0584 31.8314C30.7676 36.2193 24.5427 37.1087 20.1547 33.8179C19.5524 33.3661 19.0038 32.8477 18.5194 32.2729L18.1683 31.8314C21.4591 27.4435 27.684 26.5541 32.0719 29.8449C32.6743 30.2967 33.2228 30.8151 33.7073 31.3899L34.0584 31.8314ZM26.1133 39.7767C22.8225 44.1647 16.5976 45.0541 12.2096 41.7632C11.6073 41.3115 11.0588 40.7931 10.5743 40.2183L10.2232 39.7767C13.514 35.3888 19.7389 34.4994 24.1269 37.7903C24.7292 38.242 25.2777 38.7604 25.7622 39.3352L26.1133 39.7767ZM43.649 6.34982C44.4247 11.7801 40.6518 16.8106 35.222 17.5863C34.4767 17.6927 33.7223 17.714 32.9734 17.6501L32.4129 17.5858C31.6372 12.156 35.4102 7.12547 40.84 6.34981C41.7716 6.21673 42.7174 6.21673 43.649 6.34982Z" stroke="#D0AF00" stroke-width="2.08333" stroke-linecap="round"/>
</svg>
