<svg width="50" height="50" viewBox="0 0 50 50" fill="none" xmlns="http://www.w3.org/2000/svg">
<g clip-path="url(#clip0_85_251)">
<rect x="13.2534" y="30.5133" width="22.56" height="17.5467" fill="white"/>
<ellipse cx="31.4266" cy="31.14" rx="5.64" ry="4.38667" fill="white"/>
<rect x="19.5195" y="2.93994" width="10.0267" height="25.0667" fill="#C4C4C4"/>
<rect x="13.2534" y="20.4867" width="22.56" height="7.52" fill="#C4C4C4"/>
<path d="M21.2288 20.2615L14.3749 23.014L19.7338 13.0285L21.2288 20.2615Z" fill="#C4C4C4"/>
<path d="M27.2887 20.145L28.8905 12.0761L35.1428 22.5918L27.2887 20.145Z" fill="#C4C4C4"/>
<ellipse cx="19.52" cy="28.6333" rx="7.52" ry="3.13333" fill="#C4C4C4"/>
<path d="M18.0572 2H31.1127M13.638 21.6135L16.063 17.7622C18.1897 14.3847 19.5566 10.5853 20.0691 6.62719L20.6683 2H28.5016L29.0433 6.33371C29.5465 10.3591 30.921 14.2265 33.0711 17.6667L35.5412 21.6188C36.0599 22.4488 36.335 23.4079 36.335 24.3866V43.7778C36.335 46.6619 33.9969 49 31.1127 49H18.0572C15.173 49 12.835 46.6619 12.835 43.7778V24.396C12.835 23.4114 13.1134 22.4468 13.638 21.6135ZM12.835 30.7222L14.4755 31.2691C18.354 32.5619 22.6199 31.8696 25.8905 29.4167L26.4418 29.0032C29.1454 26.9755 32.7119 26.5548 35.796 27.8624L36.335 28.1111V43.7778C36.335 46.6619 33.9969 49 31.1127 49H18.0572C15.173 49 12.835 46.6619 12.835 43.7778V30.7222Z" stroke="black" stroke-width="2.61111" stroke-linecap="round"/>
</g>
<defs>
<clipPath id="clip0_85_251">
<rect width="50" height="50" fill="white"/>
</clipPath>
</defs>
</svg>
