<svg width="50" height="50" viewBox="0 0 50 50" fill="none" xmlns="http://www.w3.org/2000/svg">
<g clip-path="url(#clip0_85_250)">
<path fill-rule="evenodd" clip-rule="evenodd" d="M23.3798 49.2143C32.3872 46.3475 39.8904 39.2622 42.8877 29.5451C45.8849 19.8279 43.6765 9.74713 37.849 2.3045C28.8415 5.17134 21.3383 12.2566 18.3411 21.9738C15.3439 31.6909 17.5523 41.7717 23.3798 49.2143Z" fill="black" fill-opacity="0.2"/>
<mask id="path-2-inside-1_85_250" fill="white">
<path fill-rule="evenodd" clip-rule="evenodd" d="M21.6982 48.6955C30.7056 45.8286 38.2088 38.7434 41.206 29.0262C44.2033 19.3091 41.9948 9.22828 36.1673 1.78565C27.1599 4.65249 19.6567 11.7378 16.6595 21.4549C13.6622 31.1721 15.8706 41.2529 21.6982 48.6955Z"/>
</mask>
<path fill-rule="evenodd" clip-rule="evenodd" d="M21.6982 48.6955C30.7056 45.8286 38.2088 38.7434 41.206 29.0262C44.2033 19.3091 41.9948 9.22828 36.1673 1.78565C27.1599 4.65249 19.6567 11.7378 16.6595 21.4549C13.6622 31.1721 15.8706 41.2529 21.6982 48.6955Z" fill="#1F8506"/>
<path d="M21.6982 48.6955L21.2152 49.0736L21.478 49.4092L21.8842 49.28L21.6982 48.6955ZM36.1673 1.78565L36.6503 1.40751L36.3875 1.07189L35.9813 1.20117L36.1673 1.78565ZM40.6199 28.8454C37.6844 38.3625 30.3363 45.3025 21.5121 48.111L21.8842 49.28C31.0748 46.3548 38.7332 39.1242 41.7922 29.207L40.6199 28.8454ZM35.6844 2.1638C41.3934 9.45503 43.5554 19.3283 40.6199 28.8454L41.7922 29.207C44.8511 19.2898 42.5963 9.00153 36.6503 1.40751L35.6844 2.1638ZM17.2456 21.6357C20.1811 12.1186 27.5292 5.17866 36.3534 2.37014L35.9813 1.20117C26.7907 4.12632 19.1323 11.3569 16.0733 21.2741L17.2456 21.6357ZM22.1811 48.3173C16.4721 41.0261 14.3101 31.1528 17.2456 21.6357L16.0733 21.2741C13.0144 31.1913 15.2692 41.4796 21.2152 49.0736L22.1811 48.3173Z" fill="black" mask="url(#path-2-inside-1_85_250)"/>
<path d="M35.8772 2.85151L22.5816 47.7591L21.5664 47.4459L35.8772 2.85151Z" fill="black"/>
<path fill-rule="evenodd" clip-rule="evenodd" d="M21.5131 48.3791C30.3508 45.4356 37.6853 38.4137 40.6402 28.8338C43.5563 19.3799 41.5449 9.58187 36.0672 2.20396L21.5131 48.3791Z" fill="black" fill-opacity="0.3"/>
<path d="M26.9139 11.1686C23.2608 14.7846 19.8577 19.0487 19.6081 18.7965C19.6081 18.7965 21.9422 13.9782 25.5953 10.3622C29.2484 6.74621 33.8291 4.84589 33.8291 4.84589C34.0787 5.09811 30.567 7.55262 26.9139 11.1686Z" fill="white" fill-opacity="0.5"/>
<path fill-rule="evenodd" clip-rule="evenodd" d="M23.8019 48.3155C27.6192 42.4333 28.5889 34.8393 25.7359 27.856C22.883 20.8727 16.8733 16.1301 10.0293 14.6034C6.21202 20.4856 5.24229 28.0796 8.09526 35.063C10.9482 42.0463 16.9579 46.7888 23.8019 48.3155Z" fill="black" fill-opacity="0.2"/>
<mask id="path-8-inside-2_85_250" fill="white">
<path fill-rule="evenodd" clip-rule="evenodd" d="M22.5931 48.8092C15.749 47.2825 9.73932 42.5399 6.88635 35.5566C4.0334 28.5733 5.00309 20.9794 8.82029 15.0971C15.6644 16.6238 21.674 21.3664 24.527 28.3497C27.38 35.333 26.4103 42.927 22.5931 48.8092Z"/>
</mask>
<path fill-rule="evenodd" clip-rule="evenodd" d="M22.5931 48.8092C15.749 47.2825 9.73932 42.5399 6.88635 35.5566C4.0334 28.5733 5.00309 20.9794 8.82029 15.0971C15.6644 16.6238 21.674 21.3664 24.527 28.3497C27.38 35.333 26.4103 42.927 22.5931 48.8092Z" fill="#1F8506"/>
<path d="M8.82029 15.0971L8.91935 14.653L8.61073 14.5842L8.43859 14.8494L8.82029 15.0971ZM22.5931 48.8092L22.494 49.2533L22.8026 49.3222L22.9748 49.0569L22.5931 48.8092ZM8.72122 15.5412C15.4261 17.0369 21.3115 21.6823 24.1058 28.5218L24.9482 28.1776C22.0365 21.0506 15.9026 16.2108 8.91935 14.653L8.72122 15.5412ZM24.1058 28.5218C26.9 35.3614 25.9509 42.7989 22.2114 48.5615L22.9748 49.0569C26.8696 43.055 27.8599 35.3047 24.9482 28.1776L24.1058 28.5218ZM22.6921 48.3651C15.9873 46.8695 10.1018 42.2241 7.30758 35.3845L6.46513 35.7287C9.37683 42.8558 15.5107 47.6956 22.494 49.2533L22.6921 48.3651ZM7.30758 35.3845C4.51336 28.545 5.46244 21.1074 9.20198 15.3448L8.43859 14.8494C4.54375 20.8513 3.55344 28.6016 6.46513 35.7287L7.30758 35.3845Z" fill="black" mask="url(#path-8-inside-2_85_250)"/>
<path d="M9.15581 15.8449L22.6595 47.8564L21.9299 48.1545L9.15581 15.8449Z" fill="black"/>
<path fill-rule="evenodd" clip-rule="evenodd" d="M22.3378 48.7143C26.0213 42.868 26.924 35.3901 24.1114 28.5056C21.3358 21.7118 15.5725 17.0387 8.95982 15.3844L22.3378 48.7143Z" fill="black" fill-opacity="0.3"/>
<path d="M7.92808 24.8323C7.53425 28.6249 7.58874 32.6717 7.32689 32.6445C7.32689 32.6445 6.39856 28.7828 6.79239 24.9902C7.18622 21.1975 8.91931 17.9524 8.91931 17.9524C9.18116 17.9796 8.32191 21.0396 7.92808 24.8323Z" fill="white" fill-opacity="0.5"/>
</g>
<defs>
<clipPath id="clip0_85_250">
<rect width="50" height="50" fill="white"/>
</clipPath>
</defs>
</svg>
