<svg width="50" height="50" viewBox="0 0 50 50" fill="none" xmlns="http://www.w3.org/2000/svg">
<g clip-path="url(#clip0_84_248)">
<path fill-rule="evenodd" clip-rule="evenodd" d="M18.955 49.2143C27.9624 46.3475 35.4656 39.2622 38.4629 29.5451C41.4601 19.8279 39.2517 9.74713 33.4242 2.3045C24.4167 5.17134 16.9135 12.2566 13.9163 21.9738C10.9191 31.6909 13.1275 41.7717 18.955 49.2143Z" fill="black" fill-opacity="0.2"/>
<mask id="path-2-inside-1_84_248" fill="white">
<path fill-rule="evenodd" clip-rule="evenodd" d="M17.2734 48.6955C26.2808 45.8286 33.784 38.7434 36.7812 29.0262C39.7785 19.3091 37.57 9.22828 31.7425 1.78565C22.7351 4.65249 15.2319 11.7378 12.2347 21.4549C9.23744 31.1721 11.4458 41.2529 17.2734 48.6955Z"/>
</mask>
<path fill-rule="evenodd" clip-rule="evenodd" d="M17.2734 48.6955C26.2808 45.8286 33.784 38.7434 36.7812 29.0262C39.7785 19.3091 37.57 9.22828 31.7425 1.78565C22.7351 4.65249 15.2319 11.7378 12.2347 21.4549C9.23744 31.1721 11.4458 41.2529 17.2734 48.6955Z" fill="#1F8506"/>
<path d="M17.2734 48.6955L16.7904 49.0736L17.0532 49.4092L17.4594 49.28L17.2734 48.6955ZM31.7425 1.78565L32.2255 1.40751L31.9627 1.07189L31.5565 1.20117L31.7425 1.78565ZM36.1951 28.8454C33.2596 38.3625 25.9115 45.3025 17.0873 48.111L17.4594 49.28C26.65 46.3548 34.3084 39.1242 37.3674 29.207L36.1951 28.8454ZM31.2596 2.1638C36.9686 9.45503 39.1306 19.3283 36.1951 28.8454L37.3674 29.207C40.4263 19.2898 38.1715 9.00153 32.2255 1.40751L31.2596 2.1638ZM12.8208 21.6357C15.7563 12.1186 23.1044 5.17866 31.9286 2.37014L31.5565 1.20117C22.3658 4.12632 14.7075 11.3569 11.6485 21.2741L12.8208 21.6357ZM17.7563 48.3173C12.0473 41.0261 9.88527 31.1528 12.8208 21.6357L11.6485 21.2741C8.5896 31.1913 10.8444 41.4796 16.7904 49.0736L17.7563 48.3173Z" fill="black" mask="url(#path-2-inside-1_84_248)"/>
<path d="M31.4524 2.85151L18.1568 47.7591L17.1415 47.4459L31.4524 2.85151Z" fill="black"/>
<path fill-rule="evenodd" clip-rule="evenodd" d="M17.0883 48.3791C25.926 45.4356 33.2605 38.4137 36.2154 28.8338C39.1314 19.3799 37.1201 9.58187 31.6424 2.20396L17.0883 48.3791Z" fill="black" fill-opacity="0.3"/>
<path d="M22.4891 11.1686C18.836 14.7846 15.4329 19.0487 15.1833 18.7965C15.1833 18.7965 17.5174 13.9782 21.1705 10.3622C24.8235 6.74621 29.4043 4.84589 29.4043 4.84589C29.6539 5.09811 26.1422 7.55262 22.4891 11.1686Z" fill="white" fill-opacity="0.5"/>
</g>
<defs>
<clipPath id="clip0_84_248">
<rect width="50" height="50" fill="white"/>
</clipPath>
</defs>
</svg>
