<svg width="50" height="50" viewBox="0 0 50 50" fill="none" xmlns="http://www.w3.org/2000/svg">
<g clip-path="url(#clip0_85_249)">
<path d="M13 1.31714C13 1.31714 13 3.05879 13.1785 5.69298C13.1808 5.70736 13.1808 5.72202 13.1785 5.7364C13.1785 5.88113 13.1882 6.03069 13.2075 6.18508C13.21 6.18948 13.2113 6.19447 13.2113 6.19955C13.2113 6.20463 13.21 6.20963 13.2075 6.21403C13.2412 6.65788 13.2798 7.12586 13.3232 7.60831C13.3232 7.60831 13.3232 7.63244 13.3232 7.64208C14.0952 16.3503 16.7004 30.9783 25.4714 30.9783C37.9524 30.9783 37.47 1.31714 37.47 1.31714H13ZM25.481 29.3621C23.2569 29.3621 21.4719 28.3393 20.0438 26.6989C21.2359 27.6781 22.7323 28.2104 24.2749 28.2042C33.7792 28.2042 35.2459 9.55259 35.4726 3.78729C36.2494 3.63291 36.2059 3.4544 36.2059 3.26624H36.2397C36.2397 3.26624 36.7222 29.3621 25.481 29.3621Z" fill="black"/>
<path d="M26.4313 38.1811C26.4313 47.0389 29.7361 50.4065 25.3796 50.4065C21.3222 50.4065 24.5401 47.0293 24.5401 38.1811C24.5401 29.3329 23.3774 29.1158 25.2638 29.1158C27.1502 29.1158 26.4313 29.3233 26.4313 38.1811Z" fill="black"/>
<path d="M33.297 49.7166C33.297 50.5802 29.7992 51 25.4812 51C21.1633 51 17.6655 50.5802 17.6655 49.7166C17.6655 48.853 21.1633 47.5311 25.4812 47.5311C29.7992 47.5311 33.297 48.853 33.297 49.7166Z" fill="black"/>
<path d="M37.442 1.31709C37.442 2.0456 32.3521 2.63419 25.482 2.63419C18.6119 2.63419 13.0396 2.0456 13.0396 1.31709C13.0396 0.588592 18.607 0 25.482 0C32.3569 0 37.442 0.588592 37.442 1.31709Z" fill="#4D4D4D" fill-opacity="0.81"/>
<path d="M36.2344 3.26636C36.2344 3.26636 36.2344 3.49311 36.2344 3.90319C36.2344 4.05115 36.2344 4.22483 36.2344 4.42424C36.2344 4.62366 36.2344 4.79734 36.2344 4.94529C36.0028 10.7347 35.0235 29.3622 25.5143 29.3622C23.972 29.3668 22.4761 28.8346 21.2832 27.8569C16.6758 24.2385 15.0885 14.8742 14.5337 8.80008C14.5337 8.80008 14.5337 8.80008 14.5337 8.76631C14.4903 8.28386 14.4565 7.80141 14.4179 7.37202V7.34308L14.389 6.8944C14.3913 6.88002 14.3913 6.86536 14.389 6.85098C14.2539 4.67994 14.2539 3.26636 14.2539 3.26636H36.2344Z" fill="#B7252C"/>
<path d="M34.8317 5.49036C34.8317 5.49036 34.8317 26.9788 25.8822 26.9788C24.1068 26.9788 23.6147 26.0139 24.9173 26.0139C32.4918 26.0139 33.6593 10.5079 33.8378 5.71711C34.4554 5.59167 34.8317 5.49036 34.8317 5.49036Z" fill="#A5202D"/>
<path d="M36.2057 3.26621C36.2057 3.45436 36.2491 3.63287 35.4724 3.78726C33.6198 4.16357 29.8422 4.42409 25.4808 4.42409C19.2716 4.42409 14.2734 3.90304 14.2734 3.26621C14.2734 2.89472 15.7932 2.5956 18.1958 2.41227C20.1545 2.23859 22.7019 2.13245 25.4808 2.13245C28.2597 2.13245 30.7878 2.23859 32.7658 2.41227C33.685 2.48179 34.5998 2.60097 35.5062 2.76928C36.2636 2.89472 36.2057 3.07805 36.2057 3.26621Z" fill="#A5202D"/>
</g>
<defs>
<clipPath id="clip0_85_249">
<rect width="50" height="50" fill="white"/>
</clipPath>
</defs>
</svg>
