<svg width="50" height="50" viewBox="0 0 50 50" fill="none" xmlns="http://www.w3.org/2000/svg">
<g clip-path="url(#clip0_109_280)">
<g filter="url(#filter0_d_109_280)">
<path d="M44.3783 11.4009C43.516 11.678 42.6999 11.8166 41.93 11.8166C41.1909 11.8166 40.498 11.9706 39.8513 12.2786C39.605 12.6173 39.4048 12.8791 39.2508 13.0639C39.0968 13.2178 38.8966 13.264 38.6503 13.2024C38.4039 13.5412 38.2037 13.803 38.0498 13.9877C37.9266 14.1725 37.8342 14.4035 37.7726 14.6806C37.711 14.927 37.6494 15.2042 37.5878 15.5121C37.557 15.7893 37.4954 16.0357 37.403 16.2512C37.4954 16.3128 37.5416 16.436 37.5416 16.6208C37.5724 16.8056 37.557 16.9287 37.4954 16.9903C37.6494 17.6062 37.7726 18.2992 37.865 19.069C37.9882 19.8389 38.1268 20.5472 38.2807 21.194C38.2191 21.5635 38.2191 21.9639 38.2807 22.395C38.3731 22.7953 38.4347 23.2111 38.4655 23.6422C38.4655 24.1042 38.4809 24.6277 38.5117 25.2128C38.5425 25.7979 38.5117 26.3061 38.4193 26.7372C38.6041 26.8912 38.6811 27.0914 38.6503 27.3377C38.6195 27.5841 38.6041 27.7843 38.6041 27.9382C38.4501 28.0922 38.4039 28.2 38.4655 28.2616C38.5271 28.2924 38.5887 28.354 38.6503 28.4464C38.5579 28.5696 38.5271 28.6927 38.5579 28.8159C38.5887 28.9083 38.5425 29.0007 38.4193 29.0931C38.4501 29.2163 38.4809 29.3241 38.5117 29.4164C38.5425 29.478 38.5733 29.5396 38.6041 29.6012C38.4501 30.1555 38.4039 30.7715 38.4655 31.449C38.5271 32.0957 38.4655 32.6962 38.2807 33.2505C38.3423 33.3737 38.3731 33.5893 38.3731 33.8972C38.3731 34.1744 38.3115 34.3592 38.1883 34.4516C38.2499 34.5747 38.2653 34.7441 38.2345 34.9597C38.2345 35.1753 38.2037 35.36 38.1421 35.514C38.1729 36.0068 38.1729 36.4995 38.1421 36.9922C38.1421 37.4542 38.0498 37.8083 37.865 38.0547C37.9882 38.3934 37.9728 38.7014 37.8188 38.9786C37.6648 39.2249 37.6186 39.4713 37.6802 39.7177C37.4954 39.8716 37.3877 39.9948 37.3569 40.0872C37.3569 40.1796 37.2491 40.2874 37.0335 40.4106C37.0951 40.9033 36.9565 41.2882 36.6178 41.5654C36.3098 41.8426 36.0326 42.1043 35.7863 42.3507C35.6631 42.6279 35.5553 42.8434 35.4629 42.9974C35.3705 43.1206 35.2627 43.2284 35.1396 43.3208C34.9856 43.3208 34.8778 43.3054 34.8162 43.2746C34.7546 43.2438 34.693 43.2284 34.6314 43.2284C34.5082 43.1052 34.4005 43.0898 34.3081 43.1822C34.2465 43.2746 34.1695 43.3824 34.0771 43.5055C34.0155 43.5979 33.9231 43.6749 33.7999 43.7365C33.7075 43.7981 33.5844 43.7981 33.4304 43.7365C33.338 43.8597 33.2764 43.9675 33.2456 44.0599C33.2148 44.1523 33.1686 44.2292 33.107 44.2908C32.7375 44.3832 32.3679 44.5064 31.9984 44.6604C31.6596 44.7836 31.3055 44.9221 30.9359 45.0761C30.5972 45.1993 30.243 45.3071 29.8735 45.3995C29.5347 45.4611 29.196 45.4611 28.8572 45.3995C28.734 45.5843 28.6108 45.7382 28.4877 45.8614C28.3953 45.9538 28.2105 46.0308 27.9333 46.0924C27.6254 46.1232 27.302 46.1232 26.9633 46.0924C26.6553 46.0616 26.3935 46.1386 26.178 46.3234C25.4389 46.2926 24.823 46.2618 24.3302 46.231C23.8683 46.231 23.4217 46.2002 22.9906 46.1386C22.8366 46.1694 22.6672 46.1848 22.4825 46.1848C22.3285 46.2156 22.2207 46.154 22.1591 46C21.728 45.9692 21.2968 45.846 20.8657 45.6305C20.4345 45.3841 19.9726 45.2763 19.4799 45.3071C19.1103 45.3687 18.8486 45.3533 18.6946 45.2609C18.5406 45.1377 18.3866 45.0299 18.2326 44.9375C18.3558 44.7528 18.3404 44.6604 18.1865 44.6604C18.0325 44.6604 17.9555 44.5834 17.9555 44.4294C17.278 44.1523 16.6929 43.9059 16.2001 43.6903C15.7074 43.4439 15.3224 43.059 15.0453 42.5355C14.5525 42.2583 14.1676 41.8734 13.8904 41.3806C13.6441 40.8571 13.3515 40.3798 13.0128 39.9486C12.9204 39.6099 12.828 39.2403 12.7356 38.84C12.6432 38.4396 12.5046 38.1163 12.3198 37.8699C12.1351 37.254 12.0735 36.6535 12.1351 36.0683C12.2275 35.4524 12.2429 34.9289 12.1813 34.4978C12.4584 33.9434 12.5354 33.3583 12.4122 32.7424C12.3198 32.0957 12.3198 31.4336 12.4122 30.7561C12.3198 30.6945 12.1813 30.6791 11.9965 30.7099C11.8117 30.7099 11.6731 30.7099 11.5807 30.7099C11.5192 30.3711 11.6115 30.1247 11.8579 29.9708C12.1351 29.786 12.3506 29.5704 12.5046 29.3241C12.4738 29.0161 12.52 28.8159 12.6432 28.7235C12.5508 28.5696 12.52 28.431 12.5508 28.3078C12.6124 28.1538 12.5662 28.0306 12.4122 27.9382C12.5354 27.6919 12.6124 27.3377 12.6432 26.8758C12.674 26.4139 12.5662 26.0905 12.3198 25.9057C12.443 25.4746 12.4584 24.9972 12.366 24.4737C12.2737 23.9194 12.2275 23.3805 12.2275 22.8569C12.2275 22.6722 12.2429 22.4874 12.2737 22.3026C12.3044 22.087 12.3198 21.8869 12.3198 21.7021C12.3198 21.4557 12.2737 21.2248 12.1813 21.0092C12.0889 20.7628 12.0581 20.5626 12.0889 20.4087C12.2121 20.0391 12.2429 19.8081 12.1813 19.7158C12.1197 19.6234 12.0889 19.5002 12.0889 19.3462C12.0581 19.1306 12.0889 18.9305 12.1813 18.7457C12.2737 18.5609 12.289 18.3607 12.2275 18.1452C12.1659 18.0836 12.1197 18.0066 12.0889 17.9142C12.0581 17.8218 12.0119 17.7448 11.9503 17.6832C12.0735 17.4061 12.1351 17.2213 12.1351 17.1289C12.1659 17.0365 12.1351 16.9903 12.0427 16.9903C11.9811 17.0827 11.8733 17.1289 11.7193 17.1289C11.5653 17.0981 11.4576 17.0673 11.396 17.0365C11.5192 16.821 11.6577 16.6362 11.8117 16.4822C11.9657 16.3282 12.1043 16.1588 12.2275 15.9741C12.2583 15.8201 12.2429 15.7123 12.1813 15.6507C12.1505 15.5583 12.1197 15.4505 12.0889 15.3274C12.1813 14.9886 12.1967 14.8038 12.1351 14.773C12.1043 14.7114 12.0889 14.6498 12.0889 14.5883C12.1813 14.1263 12.0889 13.6644 11.8117 13.2024C11.5346 12.7405 11.2574 12.3402 10.9802 12.0014C10.3335 11.7858 9.56362 11.7088 8.67054 11.7704C7.80826 11.8012 7.06916 11.8782 6.45324 12.0014C6.42244 11.8782 6.37625 11.7858 6.31466 11.7242C6.22227 11.6626 6.14528 11.6011 6.08369 11.5395C5.9913 11.2007 6.09909 10.9697 6.40705 10.8466C6.68421 10.7234 7.05376 10.6618 7.5157 10.6618C7.94684 10.6618 8.39338 10.6926 8.85531 10.7542C9.34805 10.785 9.733 10.8004 10.0102 10.8004C10.7801 10.8004 11.4114 10.785 11.9041 10.7542C12.3968 10.7234 12.982 10.7696 13.6595 10.8928C14.3062 10.8312 14.9837 10.8312 15.692 10.8928C16.4311 10.9235 17.124 10.8312 17.7707 10.6156C18.0787 10.708 18.4482 10.6772 18.8794 10.5232C19.3105 10.3692 19.6954 10.3846 20.0342 10.5694C20.4961 10.477 20.9427 10.4308 21.3738 10.4308C21.805 10.4 22.2207 10.3846 22.6211 10.3846C23.0214 10.3846 23.4217 10.3846 23.8221 10.3846C24.2224 10.3846 24.6228 10.3384 25.0231 10.246C25.1771 10.3076 25.3157 10.3692 25.4389 10.4308C25.5621 10.4616 25.7314 10.4616 25.947 10.4308C26.2242 10.9851 26.2088 11.4933 25.9008 11.9552C25.4697 11.7704 25.1617 11.6626 24.9769 11.6319C24.7922 11.6011 24.592 11.6011 24.3764 11.6319C24.1608 11.6319 23.9453 11.6319 23.7297 11.6319C23.5449 11.6319 23.3909 11.5549 23.2678 11.4009C22.6211 11.3701 22.1283 11.4933 21.7896 11.7704C21.4508 12.0476 21.1429 12.3402 20.8657 12.6481C20.7425 12.8945 20.6193 13.1101 20.4961 13.2948C20.373 13.4488 20.1574 13.5566 19.8494 13.6182C19.8494 13.803 19.8956 13.9415 19.988 14.0339C20.1112 14.0955 20.2036 14.2033 20.2652 14.3573C20.2652 14.6344 20.1574 14.8346 19.9418 14.9578C19.7262 15.081 19.68 15.2966 19.8032 15.6045C19.7416 15.9125 19.8648 16.0972 20.1728 16.1588L20.0342 16.7132C19.8186 16.9595 19.7262 17.0981 19.757 17.1289C19.8186 17.1289 19.8494 17.1751 19.8494 17.2675C19.8802 17.5754 19.9264 17.8372 19.988 18.0528C20.0496 18.2376 19.9572 18.4069 19.7108 18.5609C19.834 18.8997 19.8648 19.2384 19.8032 19.5772C19.7724 19.9159 19.7878 20.2393 19.8494 20.5472C19.8802 20.7936 19.9418 21.04 20.0342 21.2863C20.1574 21.5019 20.219 21.6867 20.219 21.8407C19.9726 22.2718 19.8648 22.549 19.8956 22.6722C19.9572 22.7953 19.9418 22.9339 19.8494 23.0879C20.0958 23.6114 20.1266 24.0272 19.9418 24.3351C19.7878 24.6431 19.7416 25.0434 19.8032 25.5362C19.9572 25.7517 20.142 25.8441 20.3576 25.8133C20.3576 26.1213 20.296 26.3677 20.1728 26.5524C20.0496 26.7064 19.9264 26.8142 19.8032 26.8758C19.8032 27.2453 19.7878 27.7073 19.757 28.2616C19.757 28.8159 19.7724 29.2625 19.8032 29.6012L20.1728 30.2479C19.988 30.4019 19.8802 30.5713 19.8494 30.7561C19.8186 30.9408 19.7878 31.141 19.757 31.3566C19.757 31.5414 19.757 31.7261 19.757 31.9109C19.7878 32.0649 19.8494 32.1881 19.9418 32.2805C19.6954 33.1427 19.5723 33.8818 19.5723 34.4978C19.6031 35.0829 19.68 35.6526 19.8032 36.2069C19.7416 36.5149 19.7108 36.8228 19.7108 37.1308C19.7416 37.4388 19.834 37.7159 19.988 37.9623C20.0188 38.7938 20.065 39.5483 20.1266 40.2258C20.219 40.9033 20.4345 41.5346 20.7733 42.1197C21.0813 42.4277 21.343 42.6894 21.5586 42.905C21.7742 43.0898 22.0205 43.2592 22.2977 43.4132C22.5749 43.5671 22.852 43.7211 23.1292 43.8751C23.4063 43.9983 23.6681 44.1523 23.9145 44.337C24.592 44.491 25.3003 44.6142 26.0394 44.7066C26.8093 44.7682 27.4868 44.6912 28.0719 44.4756C29.0266 44.5372 29.8889 44.414 30.6588 44.1061C31.4595 43.7981 32.214 43.5055 32.9223 43.2284C34.0001 42.4585 34.9394 41.5192 35.7401 40.4106C36.5716 39.3019 37.0797 37.9623 37.2645 36.3917C37.2953 35.9606 37.3415 35.514 37.403 35.0521C37.4646 34.5593 37.48 34.0974 37.4492 33.6663C37.4184 33.2967 37.4492 32.9118 37.5416 32.5114C37.6648 32.1111 37.711 31.6953 37.6802 31.2642C37.6186 30.7407 37.6032 30.2017 37.634 29.6474C37.6648 29.0931 37.6802 28.5696 37.6802 28.0768C37.6494 27.6457 37.6186 27.2145 37.5878 26.7834C37.5878 26.3523 37.5416 25.9827 37.4492 25.6748C37.48 25.5208 37.48 25.3822 37.4492 25.259C37.4492 25.105 37.48 24.9511 37.5416 24.7971C37.4184 24.1812 37.3569 23.5036 37.3569 22.7645C37.3569 22.0254 37.3261 21.2863 37.2645 20.5472C37.2029 19.5926 37.0181 18.7303 36.7101 17.9604C36.4022 17.1905 36.125 16.4052 35.8787 15.6045C35.7555 15.2042 35.6477 14.9116 35.5553 14.7268C35.4937 14.5113 35.4167 14.3265 35.3243 14.1725C35.2627 13.8953 35.0934 13.7568 34.8162 13.7568C34.7546 13.6336 34.693 13.5412 34.6314 13.4796C34.6006 13.3872 34.616 13.2794 34.6776 13.1562C34.5544 12.9099 34.3697 12.7405 34.1233 12.6481C33.8769 12.5249 33.6768 12.3556 33.5228 12.14C33.1532 11.986 32.8453 11.909 32.5989 11.909C32.3525 11.8782 32.0908 11.8474 31.8136 11.8166C31.5364 11.755 31.2439 11.6626 30.9359 11.5395C30.628 11.4163 30.3046 11.4163 29.9659 11.5395C30.0274 11.3547 30.0428 11.2007 30.012 11.0775C29.9813 10.9543 29.9813 10.8312 30.012 10.708C30.166 10.7696 30.2892 10.7696 30.3816 10.708C30.474 10.6464 30.5818 10.5848 30.705 10.5232C31.0437 10.4616 31.3825 10.5078 31.7212 10.6618C32.06 10.785 32.3525 10.8312 32.5989 10.8004C33.1532 10.6464 33.569 10.5848 33.8461 10.6156C34.1233 10.6464 34.3851 10.6464 34.6314 10.6156C34.7854 10.6156 34.9548 10.6464 35.1396 10.708C35.3243 10.7388 35.4783 10.7542 35.6015 10.7542C36.125 10.5386 36.5408 10.4616 36.8487 10.5232C37.1875 10.5848 37.4954 10.5848 37.7726 10.5232C38.2037 10.4616 38.6503 10.5078 39.1122 10.6618C39.5742 10.8158 39.9745 10.7696 40.3133 10.5232C40.6828 10.6772 41.0216 10.6926 41.3295 10.5694C41.6375 10.4462 41.9608 10.4308 42.2996 10.5232C42.6691 10.5848 43.0079 10.5848 43.3158 10.5232C43.6238 10.4308 43.901 10.4154 44.1473 10.477C44.2705 10.6002 44.3629 10.7388 44.4245 10.8928C44.4861 11.0467 44.4707 11.2161 44.3783 11.4009ZM38.6041 11.7704C38.3269 11.8628 38.1421 11.9244 38.0498 11.9552C37.7726 11.8628 37.5416 11.8474 37.3569 11.909C37.2029 11.9706 37.0489 12.0784 36.8949 12.2324C36.8025 12.14 36.7255 12.063 36.6639 12.0014C36.6332 11.909 36.587 11.8628 36.5254 11.8628C36.4638 12.2632 36.4022 12.5095 36.3406 12.6019C36.2482 12.3248 36.2328 12.1708 36.2944 12.14C36.3868 12.1092 36.4176 12.0168 36.3868 11.8628C36.1712 11.986 35.971 12.063 35.7863 12.0938C35.6323 12.1246 35.5707 12.2632 35.6015 12.5095C35.9402 12.6635 36.0788 12.8021 36.0172 12.9253C35.9556 13.0485 36.0018 13.0947 36.1558 13.0639C36.1866 13.187 36.202 13.264 36.202 13.2948C36.2328 13.3256 36.2174 13.418 36.1558 13.572C36.3406 13.7876 36.51 13.9107 36.6639 13.9415C36.8179 13.9415 36.8949 13.8646 36.8949 13.7106C37.0797 13.5566 37.1259 13.4642 37.0335 13.4334C36.9411 13.4026 36.8949 13.3256 36.8949 13.2024C37.0797 13.2024 37.1721 13.264 37.1721 13.3872C37.1721 13.4796 37.2183 13.5566 37.3107 13.6182C37.4338 13.495 37.4492 13.341 37.3569 13.1562C37.2645 12.9715 37.2799 12.8329 37.403 12.7405C37.711 12.7405 37.8804 12.7405 37.9112 12.7405C37.942 12.7097 37.942 12.6635 37.9112 12.6019C37.942 12.1708 38.0498 11.9706 38.2345 12.0014C38.4193 12.0322 38.5425 11.9552 38.6041 11.7704ZM35.2319 11.7242C34.8316 11.5703 34.5082 11.5549 34.2619 11.678C34.3543 11.8628 34.5236 11.9552 34.77 11.9552C35.0164 11.9552 35.1704 11.8782 35.2319 11.7242ZM36.8487 14.5883C36.7871 14.6498 36.7255 14.7268 36.6639 14.8192C36.6024 14.8808 36.5562 14.9886 36.5254 15.1426C36.6486 15.081 36.7563 15.004 36.8487 14.9116C36.9411 14.7884 36.9411 14.6806 36.8487 14.5883ZM15.0453 12.4171C14.9529 12.3248 14.8297 12.3402 14.6757 12.4633C14.5217 12.5865 14.414 12.5403 14.3524 12.3248C14.5063 12.3556 14.6141 12.3248 14.6757 12.2324C14.7373 12.14 14.8143 12.063 14.9067 12.0014C14.7219 11.8782 14.5525 11.8474 14.3986 11.909C14.2754 11.9398 14.1522 12.0014 14.029 12.0938C13.9058 12.1862 13.7672 12.294 13.6133 12.4171C13.4901 12.5095 13.3515 12.5711 13.1975 12.6019C13.1975 12.7251 13.1051 12.8329 12.9204 12.9253C12.7664 12.9869 12.751 13.0639 12.8742 13.1562C13.0589 13.0331 13.2745 12.9253 13.5209 12.8329C13.798 12.7405 14.029 12.6943 14.2138 12.6943C14.3062 12.8483 14.4294 12.8791 14.5833 12.7867C14.7373 12.6635 14.8913 12.5403 15.0453 12.4171ZM17.5859 16.1588C17.4012 16.128 17.2626 16.1588 17.1702 16.2512C17.1086 16.3436 17.047 16.4206 16.9854 16.4822C17.1086 16.3898 17.2472 16.359 17.4012 16.3898C17.5551 16.3898 17.6167 16.3128 17.5859 16.1588ZM13.0589 12.4633C12.9358 12.3402 12.9204 12.1554 13.0128 11.909C12.8588 11.8474 12.6894 11.832 12.5046 11.8628C12.3506 11.8936 12.2275 11.9398 12.1351 12.0014C12.2275 12.1554 12.2737 12.3402 12.2737 12.5557C12.3044 12.7713 12.443 12.8637 12.6894 12.8329C12.751 12.7713 12.7972 12.7097 12.828 12.6481C12.8896 12.5865 12.9666 12.5249 13.0589 12.4633ZM20.4038 11.4471C20.2498 11.3855 20.1112 11.3855 19.988 11.4471C19.8956 11.4779 19.7878 11.5395 19.6647 11.6319C19.5723 11.6934 19.4645 11.755 19.3413 11.8166C19.2489 11.8782 19.1411 11.8936 19.0179 11.8628C18.4328 12.2632 17.9555 12.6173 17.5859 12.9253C17.2164 13.2332 16.816 13.5104 16.3849 13.7568L16.0615 14.1725C15.7536 14.1417 15.5072 14.2341 15.3224 14.4497C15.1685 14.6344 14.9683 14.7114 14.7219 14.6806C14.6911 14.773 14.5833 14.8808 14.3986 15.004C14.2446 15.0964 14.1368 15.081 14.0752 14.9578C14.3216 14.773 14.5833 14.6037 14.8605 14.4497C15.1377 14.2957 15.3686 14.0801 15.5534 13.803C15.769 13.5874 15.9692 13.5412 16.1539 13.6644C16.3387 13.572 16.5081 13.4642 16.6621 13.341C16.816 13.187 16.9546 13.0639 17.0778 12.9715C17.0162 12.9099 16.9392 12.8945 16.8468 12.9253C16.7544 12.9561 16.6621 12.9561 16.5697 12.9253C16.6929 12.7405 16.7852 12.6635 16.8468 12.6943C16.9084 12.7251 17.0008 12.7251 17.124 12.6943C17.2472 12.4479 17.2934 12.294 17.2626 12.2324C17.2626 12.1708 17.3242 12.1554 17.4474 12.1862C17.6629 12.1246 17.8323 12.063 17.9555 12.0014C18.1095 11.909 18.2634 11.8166 18.4174 11.7242C17.6167 11.9398 16.8776 12.294 16.2001 12.7867C15.5534 13.2486 14.8759 13.6798 14.1676 14.0801C14.26 13.8953 14.3216 13.7722 14.3524 13.7106C14.3832 13.649 14.4602 13.649 14.5833 13.7106C14.7065 13.4642 14.8605 13.264 15.0453 13.1101C15.2301 12.9561 15.5072 12.8791 15.8768 12.8791C15.9384 12.6943 16.0615 12.5711 16.2463 12.5095C16.3079 12.2632 16.4003 12.14 16.5235 12.14C16.6467 12.1092 16.6929 12.0168 16.6621 11.8628C16.0461 11.986 15.5072 12.2478 15.0453 12.6481C14.6141 13.0485 14.1214 13.3718 13.5671 13.6182C13.4439 13.5258 13.4439 13.4488 13.5671 13.3872C13.6903 13.2948 13.7826 13.2024 13.8442 13.1101C13.7826 13.0485 13.6595 13.0485 13.4747 13.1101C13.3207 13.1408 13.1667 13.2178 13.0128 13.341C12.8896 13.4334 12.7972 13.5412 12.7356 13.6644C12.674 13.7568 12.7202 13.8492 12.8742 13.9415C12.9358 14.2187 12.9512 14.3881 12.9204 14.4497C12.8896 14.5113 12.8434 14.5729 12.7818 14.6344C13.0281 14.6344 13.2283 14.5267 13.3823 14.3111C13.5671 14.0955 13.7826 14.0647 14.029 14.2187C13.9058 14.3419 13.6903 14.4343 13.3823 14.4959C13.1975 14.7422 13.1513 14.8808 13.2437 14.9116C13.3361 14.9424 13.3361 14.9732 13.2437 15.004C13.1513 15.1272 13.0589 15.235 12.9666 15.3274C12.905 15.3889 12.8434 15.4967 12.7818 15.6507C13.0897 15.8047 13.1667 15.8971 13.0128 15.9279C12.8896 15.9279 12.8434 16.0203 12.8742 16.205C12.9358 16.2666 12.9512 16.359 12.9204 16.4822C12.8896 16.5746 12.8588 16.6824 12.828 16.8056C12.7972 16.8979 12.7818 16.9903 12.7818 17.0827C12.7818 17.1751 12.8434 17.2675 12.9666 17.3599C12.8434 17.7294 12.7664 17.9758 12.7356 18.099C12.7048 18.2222 12.7202 18.3607 12.7818 18.5147C12.9358 18.4531 13.0897 18.3915 13.2437 18.3299C13.4285 18.2376 13.5979 18.1452 13.7519 18.0528C13.7211 18.2068 13.7519 18.2992 13.8442 18.3299C13.9674 18.3299 14.029 18.3915 14.029 18.5147C13.6903 18.6687 13.5517 18.7611 13.6133 18.7919C13.6749 18.7919 13.6749 18.8227 13.6133 18.8843C13.3977 18.8227 13.2745 18.8381 13.2437 18.9305C13.2437 19.0229 13.1667 19.0536 13.0128 19.0229C13.0743 19.146 13.0589 19.2692 12.9666 19.3924C12.905 19.4848 12.8434 19.608 12.7818 19.762C12.8742 19.762 12.9358 19.7466 12.9666 19.7158C13.0281 19.6542 13.0743 19.608 13.1051 19.5772C13.1667 19.5156 13.2129 19.4694 13.2437 19.4386C13.3053 19.4078 13.3977 19.4232 13.5209 19.4848C13.7672 19.4232 13.9366 19.5464 14.029 19.8543C13.5979 19.9467 13.3053 20.1315 13.1513 20.4087C12.9974 20.655 12.905 20.9476 12.8742 21.2863C12.8434 21.5943 12.8434 21.9485 12.8742 22.3488C12.905 22.7184 12.8742 23.0571 12.7818 23.3651C12.905 23.5498 12.9358 23.7654 12.8742 24.0118C12.8434 24.2581 12.8896 24.4891 13.0128 24.7047C13.4439 24.5507 13.7826 24.3351 14.029 24.058C14.3062 23.7808 14.6757 23.5806 15.1377 23.4575C15.1377 23.2111 15.2301 23.0725 15.4148 23.0417C15.6304 23.0109 15.7536 22.9031 15.7844 22.7184C16.0307 22.6568 16.1539 22.5644 16.1539 22.4412C16.1847 22.318 16.2925 22.2256 16.4773 22.164C16.6313 22.1024 16.7544 22.0562 16.8468 22.0254C16.9392 21.9639 17.0008 22.01 17.0316 22.164C16.6005 22.318 16.3233 22.4874 16.2001 22.6722C16.1077 22.8569 16.0307 23.0263 15.9692 23.1803C16.5543 22.7799 17.1086 22.4566 17.6321 22.2102C18.1557 21.9331 18.6792 21.6713 19.2027 21.4249C19.1719 21.2709 19.1257 21.1632 19.0641 21.1016C19.0025 21.0092 19.0025 20.886 19.0641 20.732C19.0025 20.6396 18.9256 20.6242 18.8332 20.6858C18.7716 20.7474 18.6792 20.7474 18.556 20.6858C18.4944 20.8398 18.3712 20.963 18.1865 21.0554C18.0325 21.1478 17.8631 21.2248 17.6783 21.2863C17.4627 21.6867 17.2934 21.8869 17.1702 21.8869C17.0778 21.7945 17.0778 21.7021 17.1702 21.6097C17.2934 21.4865 17.3858 21.3787 17.4474 21.2863C17.5397 21.1632 17.6321 21.0708 17.7245 21.0092C17.8169 20.9168 17.9401 20.886 18.0941 20.9168C18.1249 20.8244 18.1557 20.7474 18.1865 20.6858C18.2172 20.5934 18.248 20.5011 18.2788 20.4087C18.6176 20.3471 18.8332 20.1777 18.9256 19.9005C18.8332 19.8389 18.7254 19.8697 18.6022 19.9929C18.5098 20.1161 18.402 20.1315 18.2788 20.0391C18.1249 20.2547 18.0171 20.3471 17.9555 20.3163C17.9247 20.2547 17.8785 20.2393 17.8169 20.2701C17.7553 20.5165 17.6013 20.6088 17.355 20.5472C17.2934 20.6704 17.2318 20.7936 17.1702 20.9168C17.1394 21.0092 17.0778 21.0862 16.9854 21.1478C16.8006 21.117 16.6621 21.1016 16.5697 21.1016C16.4773 21.0708 16.4003 20.9784 16.3387 20.8244C16.8006 20.886 17.0162 20.809 16.9854 20.5934C16.9238 20.4703 16.9392 20.3933 17.0316 20.3625C17.124 20.3009 17.2472 20.2547 17.4012 20.2239C17.5243 19.8851 17.6475 19.7312 17.7707 19.762C17.8631 19.9467 18.0171 20.0237 18.2326 19.9929C18.2326 19.8081 18.2634 19.7004 18.325 19.6696C18.4174 19.6388 18.5252 19.6234 18.6484 19.6234C18.7716 19.5926 18.864 19.5618 18.9256 19.531C19.0179 19.4694 19.0641 19.3462 19.0641 19.1614C18.8178 18.9767 18.7254 18.8689 18.787 18.8381C18.8486 18.7765 18.8948 18.6995 18.9256 18.6071C18.4944 18.5763 18.2634 18.6071 18.2326 18.6995C18.2018 18.7919 18.1249 18.8535 18.0017 18.8843C18.0325 18.6379 18.0325 18.4993 18.0017 18.4685C17.9709 18.4377 17.9555 18.3915 17.9555 18.3299C18.0479 18.3607 18.1095 18.3607 18.1403 18.3299C18.1711 18.2684 18.1865 18.2068 18.1865 18.1452C18.1865 18.0836 18.1865 18.0374 18.1865 18.0066C18.2172 17.945 18.2788 17.9296 18.3712 17.9604C18.6484 18.1452 18.8178 18.1298 18.8794 17.9142C18.8178 17.7602 18.787 17.6062 18.787 17.4523C18.787 17.2675 18.787 17.0981 18.787 16.9441C18.7254 16.8825 18.6484 16.8517 18.556 16.8517C18.4636 16.8517 18.3712 16.8363 18.2788 16.8056C18.1865 16.7132 18.1865 16.6208 18.2788 16.5284C18.402 16.436 18.5714 16.359 18.787 16.2974C18.6946 16.1434 18.71 16.0511 18.8332 16.0203C18.9563 15.9895 19.0025 15.8663 18.9717 15.6507C18.8486 15.6815 18.7562 15.7431 18.6946 15.8355C18.633 15.8971 18.5714 15.9741 18.5098 16.0665C18.3558 16.0357 18.248 16.0665 18.1865 16.1588C18.1249 16.2204 18.0479 16.282 17.9555 16.3436C17.8323 16.4052 17.6783 16.4976 17.4935 16.6208C17.3396 16.744 17.3396 16.8671 17.4935 16.9903C17.5243 16.8363 17.6167 16.8056 17.7707 16.8979C17.9555 16.9595 18.0479 17.0365 18.0479 17.1289C17.7399 17.2213 17.6013 17.2829 17.6321 17.3137C17.6937 17.3137 17.7091 17.3753 17.6783 17.4985C17.3704 17.5601 17.2164 17.5754 17.2164 17.5447C17.2164 17.4831 17.1856 17.4523 17.124 17.4523C16.97 17.637 16.7698 17.791 16.5235 17.9142C16.2771 18.0374 16.0307 18.1914 15.7844 18.3761C15.692 18.1606 15.6304 18.0066 15.5996 17.9142C15.5996 17.8218 15.615 17.7448 15.6458 17.6832C16.0461 17.5601 16.2463 17.5754 16.2463 17.7294C16.4927 17.6062 16.6467 17.5293 16.7083 17.4985C16.7698 17.4677 16.8314 17.4677 16.893 17.4985C16.9238 17.3753 16.97 17.2675 17.0316 17.1751C17.124 17.0827 17.1394 17.0057 17.0778 16.9441C16.9238 17.0365 16.7852 17.1443 16.6621 17.2675C16.5389 17.3907 16.3849 17.4831 16.2001 17.5447C16.1077 17.4215 16.1077 17.3137 16.2001 17.2213C16.2925 17.1289 16.2925 17.0519 16.2001 16.9903C16.1385 17.0519 16.0769 17.1135 16.0153 17.1751C15.9845 17.2367 15.8922 17.2521 15.7382 17.2213C15.8614 16.9749 15.9845 16.8363 16.1077 16.8056C16.2309 16.744 16.3233 16.6824 16.3849 16.6208C16.6929 16.282 16.8776 16.0819 16.9392 16.0203C17.0008 15.9279 17.0624 15.8201 17.124 15.6969C17.3396 15.7893 17.5243 15.7739 17.6783 15.6507C17.8939 15.3428 18.1249 15.1118 18.3712 14.9578C18.6176 14.8038 18.8486 14.6498 19.0641 14.4959C19.0949 14.3111 19.0949 14.1879 19.0641 14.1263C19.0333 14.0339 19.0179 13.9569 19.0179 13.8953C18.864 13.8953 18.787 13.9723 18.787 14.1263C18.8178 14.2803 18.7254 14.3265 18.5098 14.2649C18.5098 14.1109 18.556 14.0031 18.6484 13.9415C18.7408 13.8492 18.8332 13.7722 18.9256 13.7106C19.0179 13.649 19.0949 13.5874 19.1565 13.5258C19.2181 13.4334 19.2335 13.3256 19.2027 13.2024C18.71 13.1101 18.3096 13.2486 18.0017 13.6182C17.8785 13.8953 17.7245 14.1109 17.5397 14.2649C17.3858 14.4189 17.1856 14.4497 16.9392 14.3573C17.1548 14.2033 17.3396 14.1109 17.4935 14.0801C17.6783 14.0185 17.8323 13.8799 17.9555 13.6644C17.7399 13.726 17.5705 13.7876 17.4474 13.8492C17.3242 13.9107 17.1548 13.8799 16.9392 13.7568L17.4012 13.341C17.6167 13.2794 17.7861 13.187 17.9093 13.0639C18.0325 12.9407 18.1711 12.8329 18.325 12.7405C18.5714 12.6173 18.8024 12.5095 19.0179 12.4171C19.2335 12.294 19.4645 12.1554 19.7108 12.0014C19.834 11.9398 19.9726 11.8936 20.1266 11.8628C20.2806 11.8012 20.373 11.6626 20.4038 11.4471ZM13.5671 18.4685C13.2899 18.4993 13.1205 18.5301 13.0589 18.5609C13.0281 18.5609 13.0281 18.5917 13.0589 18.6533C13.1205 18.6225 13.1975 18.6071 13.2899 18.6071C13.4131 18.5763 13.5055 18.5301 13.5671 18.4685ZM19.2027 22.9031C19.0179 22.9647 18.8486 23.0879 18.6946 23.2727C18.5714 23.4267 18.3866 23.4729 18.1403 23.4113C18.2018 23.6576 18.1403 23.7962 17.9555 23.827C17.8015 23.8578 17.6629 23.9194 17.5397 24.0118C17.355 24.3505 17.355 24.5199 17.5397 24.5199C17.7861 24.3351 18.0171 24.1504 18.2326 23.9656C18.479 23.7808 18.7562 23.6422 19.0641 23.5498C19.0949 23.3959 19.1103 23.2881 19.1103 23.2265C19.1103 23.1649 19.1411 23.0571 19.2027 22.9031ZM17.4474 24.8433L17.0778 24.4737C16.9238 24.6585 16.8006 24.7509 16.7083 24.7509C16.6467 24.7509 16.6313 24.8125 16.6621 24.9357C16.7852 24.9972 16.9084 24.9972 17.0316 24.9357C17.1856 24.8741 17.3242 24.8433 17.4474 24.8433ZM19.1565 22.0254C18.8794 22.0562 18.6484 22.1332 18.4636 22.2564C18.3096 22.3488 18.1403 22.472 17.9555 22.626C17.8015 22.7491 17.6321 22.8723 17.4474 22.9955C17.2934 23.1187 17.0932 23.1957 16.8468 23.2265C16.4465 23.6268 16.1231 23.8578 15.8768 23.9194C15.6612 23.9502 15.4148 24.0272 15.1377 24.1504C15.0145 24.2427 14.9067 24.3967 14.8143 24.6123C14.7219 24.7971 14.5679 24.8587 14.3524 24.7971C14.2908 24.9818 14.1676 25.1512 13.9828 25.3052C13.798 25.4592 13.6287 25.6132 13.4747 25.7671C13.3207 25.8903 13.1975 26.0597 13.1051 26.2753C13.0435 26.46 13.0897 26.691 13.2437 26.9682C13.952 26.4446 14.6603 25.9365 15.3686 25.4438C16.0769 24.9511 16.7236 24.3813 17.3088 23.7346C17.6475 23.4575 17.9863 23.2111 18.325 22.9955C18.6946 22.7799 18.9717 22.4566 19.1565 22.0254ZM19.0179 24.2889C18.8024 24.2273 18.633 24.2427 18.5098 24.3351C18.4174 24.3967 18.325 24.4891 18.2326 24.6123C18.1095 24.4583 18.0017 24.4583 17.9093 24.6123C17.8477 24.7355 17.7553 24.7971 17.6321 24.7971C17.5397 25.0742 17.4474 25.182 17.355 25.1204C17.2934 25.0588 17.2318 25.0588 17.1702 25.1204C17.0162 25.3668 16.7852 25.567 16.4773 25.7209C16.1693 25.8749 15.8614 26.0289 15.5534 26.1829C15.5842 26.4293 15.538 26.5678 15.4148 26.5986C15.3224 26.6294 15.2147 26.6756 15.0915 26.7372C14.9991 26.768 14.9067 26.8142 14.8143 26.8758C14.7219 26.9374 14.6449 27.0452 14.5833 27.1991C14.3062 27.3839 14.0598 27.5533 13.8442 27.7073C13.6287 27.8305 13.3977 27.9844 13.1513 28.1692C13.1513 28.4772 13.1667 28.6773 13.1975 28.7697C13.3515 28.7389 13.4593 28.6927 13.5209 28.6312C13.6133 28.5388 13.7365 28.5234 13.8904 28.585C13.952 28.3694 14.106 28.2154 14.3524 28.123C14.6295 27.9998 14.8605 27.8613 15.0453 27.7073C15.0761 27.5533 15.1993 27.3993 15.4148 27.2453C15.6612 27.0914 15.8614 27.0144 16.0153 27.0144C16.4157 26.4908 16.9084 26.0443 17.4935 25.6748C18.0787 25.2744 18.5868 24.8125 19.0179 24.2889ZM19.2027 27.9844C19.0487 27.7381 19.0487 27.4763 19.2027 27.1991C18.864 27.1376 18.633 27.2607 18.5098 27.5687C18.3866 27.8459 18.2172 28.046 18.0017 28.1692C17.9401 27.8305 17.9555 27.6611 18.0479 27.6611C18.1403 27.6611 18.2326 27.6457 18.325 27.6149C18.325 27.4301 18.3712 27.3069 18.4636 27.2453C18.5868 27.153 18.6946 27.076 18.787 27.0144C18.9102 26.922 19.0025 26.8296 19.0641 26.7372C19.1257 26.6448 19.1103 26.4908 19.0179 26.2753C18.6484 26.2445 18.4174 26.3831 18.325 26.691C18.2018 26.6602 18.0787 26.6602 17.9555 26.691C17.8631 26.691 17.7707 26.691 17.6783 26.691C17.4935 26.9066 17.355 27.076 17.2626 27.1991C17.201 27.2915 17.1086 27.3531 16.9854 27.3839C17.2626 26.9528 17.4781 26.7064 17.6321 26.6448C17.8169 26.5524 18.0325 26.4754 18.2788 26.4139C18.3096 26.2291 18.5098 26.1059 18.8794 26.0443C18.9717 25.7979 19.0333 25.6132 19.0641 25.49C19.0949 25.3668 19.0795 25.182 19.0179 24.9357C18.8948 24.9664 18.8024 25.0434 18.7408 25.1666C18.71 25.259 18.5868 25.2744 18.3712 25.2128C18.3096 25.3668 18.248 25.49 18.1865 25.5824C18.1557 25.6748 18.1095 25.7825 18.0479 25.9057C17.5859 26.2445 17.1548 26.537 16.7544 26.7834C16.3541 27.0298 15.9845 27.3377 15.6458 27.7073C15.1223 27.9844 14.7527 28.2154 14.5371 28.4002C14.3524 28.585 14.1368 28.7543 13.8904 28.9083C13.952 29.1547 14.0136 29.2933 14.0752 29.3241C14.1368 29.3241 14.1522 29.3549 14.1214 29.4164C13.9366 29.478 13.8134 29.5858 13.7519 29.7398C13.6903 29.8938 13.5363 29.9708 13.2899 29.9708C13.1051 30.2171 12.9974 30.4789 12.9666 30.7561C12.9666 31.0332 12.982 31.3566 13.0128 31.7261C13.3823 31.6029 13.5825 31.526 13.6133 31.4952C13.6749 31.4336 13.7519 31.4028 13.8442 31.4028C13.8442 31.5568 13.9212 31.6337 14.0752 31.6337C14.2292 31.6337 14.3678 31.5876 14.491 31.4952C14.4294 31.7723 14.2908 31.9109 14.0752 31.9109C13.8904 31.9109 13.7211 32.0033 13.5671 32.1881C13.4439 32.4344 13.2745 32.6038 13.0589 32.6962C13.0281 32.8502 13.0128 32.958 13.0128 33.0196C13.0128 33.0504 13.0128 33.1427 13.0128 33.2967C13.1667 33.3583 13.2899 33.3583 13.3823 33.2967C13.4747 33.2043 13.5517 33.1119 13.6133 33.0196C13.7057 32.9272 13.798 32.8502 13.8904 32.7886C13.9828 32.6962 14.106 32.65 14.26 32.65C14.3524 32.3728 14.5217 32.1881 14.7681 32.0957C15.0453 31.9725 15.2762 31.7877 15.461 31.5414C15.769 31.5722 15.9538 31.5876 16.0153 31.5876C16.0769 31.5876 16.1385 31.5722 16.2001 31.5414C16.0769 31.295 16.0153 31.141 16.0153 31.0794C16.0153 31.0178 16.0461 30.9562 16.1077 30.8946C16.2617 30.987 16.3079 31.1872 16.2463 31.4952C16.4003 31.4952 16.5235 31.4798 16.6159 31.449C16.7083 31.3874 16.8314 31.3566 16.9854 31.3566C16.8314 31.6953 16.6929 31.9109 16.5697 32.0033C16.2925 32.1573 16.0153 32.2343 15.7382 32.2343C15.5842 32.4806 15.5072 32.6654 15.5072 32.7886C15.3532 32.881 15.2301 32.9118 15.1377 32.881C15.0453 32.8502 15.0145 32.9118 15.0453 33.0658C14.7989 33.3121 14.6141 33.4661 14.491 33.5277C14.3678 33.5585 14.2754 33.6355 14.2138 33.7587C13.875 34.0666 13.6287 34.2822 13.4747 34.4054C13.3515 34.4978 13.2283 34.6055 13.1051 34.7287C12.982 34.8519 12.8896 34.9905 12.828 35.1445C12.7664 35.2984 12.8126 35.4832 12.9666 35.6988C13.2129 35.4524 13.4747 35.2369 13.7519 35.0521C14.029 34.8365 14.2908 34.6055 14.5371 34.3592C14.9991 33.9588 15.4302 33.6201 15.8306 33.3429C16.2309 33.0658 16.6005 32.7578 16.9392 32.419C17.0008 32.3882 17.0932 32.3882 17.2164 32.419C17.3396 32.419 17.432 32.3882 17.4935 32.3267C17.432 32.0187 17.4935 31.8647 17.6783 31.8647C17.8939 31.8339 18.0479 31.7877 18.1403 31.7261C18.0787 31.5722 18.0941 31.4798 18.1865 31.449C18.2788 31.4182 18.402 31.372 18.556 31.3104C18.4944 31.0948 18.5406 31.0024 18.6946 31.0332C18.8486 31.064 18.9409 31.0486 18.9717 30.987C18.9717 30.8331 18.9871 30.7099 19.0179 30.6175C19.0487 30.4943 19.0949 30.4019 19.1565 30.3403C18.8486 30.2787 18.6638 30.1863 18.6022 30.0632C18.6946 30.0016 18.7716 29.9246 18.8332 29.8322C18.9256 29.709 19.0333 29.6782 19.1565 29.7398C18.9717 29.3703 18.8332 29.1701 18.7408 29.1393C18.6484 29.1085 18.5714 29.0469 18.5098 28.9545C18.1403 28.8313 17.9401 28.7081 17.9093 28.585C18.0325 28.585 18.1249 28.585 18.1865 28.585C18.248 28.5542 18.325 28.5696 18.4174 28.6312C18.7254 28.508 18.8948 28.3848 18.9256 28.2616C18.9563 28.1384 19.0487 28.046 19.2027 27.9844ZM18.9717 31.7261C18.633 31.5722 18.402 31.5414 18.2788 31.6337C18.1865 31.7261 18.2018 31.8339 18.325 31.9571C18.1711 31.9263 18.0633 31.9571 18.0017 32.0495C17.9401 32.1419 17.8323 32.1727 17.6783 32.1419C17.432 32.3574 17.2472 32.5422 17.124 32.6962C17.0316 32.8194 16.893 32.8348 16.7083 32.7424C16.8006 32.8656 16.9238 32.9272 17.0778 32.9272C17.2626 32.9272 17.4166 32.8964 17.5397 32.8348C17.9093 32.5576 18.1403 32.3728 18.2326 32.2805C18.3558 32.1881 18.5098 32.1727 18.6946 32.2343C18.633 32.0187 18.6638 31.9263 18.787 31.9571C18.9102 31.9571 18.9717 31.8801 18.9717 31.7261ZM16.7083 33.3891C16.4927 33.3891 16.3387 33.4353 16.2463 33.5277C16.1847 33.5893 16.1231 33.6663 16.0615 33.7587C16.3079 33.7895 16.4465 33.7433 16.4773 33.6201C16.5081 33.4969 16.5851 33.4199 16.7083 33.3891ZM18.9717 32.6038C18.787 32.5114 18.6484 32.496 18.556 32.5576C18.4944 32.6192 18.4174 32.6192 18.325 32.5576C18.0479 32.7116 17.9401 32.804 18.0017 32.8348C18.0633 32.8348 18.0787 32.8964 18.0479 33.0196C17.8323 33.0504 17.6629 33.1581 17.5397 33.3429C17.4474 33.4969 17.2472 33.5739 16.9392 33.5739C16.816 33.6971 16.7083 33.8356 16.6159 33.9896C16.5235 34.1128 16.3387 34.1436 16.0615 34.082C16.0307 34.3284 15.923 34.4978 15.7382 34.5901C15.5534 34.6825 15.3378 34.7595 15.0915 34.8211C14.7835 35.2215 14.5525 35.4986 14.3986 35.6526C14.2754 35.8066 14.1368 35.9606 13.9828 36.1145C13.8596 36.2377 13.7211 36.3455 13.5671 36.4379C13.4131 36.5303 13.2129 36.5611 12.9666 36.5303C12.8434 36.7766 12.8588 37.023 13.0128 37.2694C13.1667 37.485 13.2283 37.7313 13.1975 38.0085C13.5055 37.9161 13.6441 37.8699 13.6133 37.8699C13.5825 37.8391 13.5825 37.7775 13.6133 37.6851C13.952 37.5311 14.0906 37.4388 14.029 37.408C13.9982 37.3772 14.0136 37.3618 14.0752 37.3618C14.0136 37.1154 14.106 36.9614 14.3524 36.8998C14.6295 36.8074 14.8759 36.7766 15.0915 36.8074C15.0915 36.4995 15.0607 36.3455 14.9991 36.3455C14.9683 36.3455 14.9529 36.3147 14.9529 36.2531C15.1377 36.3147 15.2147 36.2839 15.1839 36.1607C15.1839 36.0068 15.2608 35.9298 15.4148 35.9298C15.5996 35.8066 15.7382 35.7604 15.8306 35.7912C15.923 35.822 15.9999 35.8066 16.0615 35.745C16.1847 35.3446 16.3233 35.0675 16.4773 34.9135C16.6621 34.7287 16.8776 34.6671 17.124 34.7287C17.4012 34.8519 17.5551 34.9289 17.5859 34.9597C17.6475 34.9597 17.6783 34.9443 17.6783 34.9135C17.8323 34.6671 18.0171 34.4824 18.2326 34.3592C18.479 34.2052 18.6638 34.2052 18.787 34.3592C18.8178 34.2052 18.864 34.0358 18.9256 33.851C18.9871 33.6663 18.9409 33.5123 18.787 33.3891C18.4482 33.5431 18.2326 33.5893 18.1403 33.5277C18.2018 33.4661 18.2634 33.3891 18.325 33.2967C18.3866 33.2043 18.479 33.1581 18.6022 33.1581C18.7562 32.9118 18.864 32.7886 18.9256 32.7886C18.9871 32.7578 19.0025 32.6962 18.9717 32.6038ZM19.2951 38.7476C19.1103 38.9939 18.9871 39.1171 18.9256 39.1171C18.864 39.0863 18.787 39.0555 18.6946 39.0247C18.7562 39.3943 18.864 39.5021 19.0179 39.3481C19.2027 39.1941 19.2951 38.9939 19.2951 38.7476ZM16.0153 36.3917C15.8306 36.2069 15.6612 36.1607 15.5072 36.2531C15.3532 36.3455 15.3378 36.4687 15.461 36.6227C15.615 36.5919 15.692 36.5303 15.692 36.4379C15.692 36.3147 15.7998 36.2993 16.0153 36.3917ZM24.1916 45.5381C24.1916 45.3841 24.0993 45.3071 23.9145 45.3071C23.7297 45.2763 23.6219 45.3379 23.5911 45.4919C23.7759 45.5535 23.9761 45.5689 24.1916 45.5381ZM19.8494 41.3806C19.6954 41.319 19.6031 41.2112 19.5723 41.0573C19.5723 40.8725 19.5415 40.6723 19.4799 40.4568C19.4183 40.5799 19.3567 40.7339 19.2951 40.9187C19.2335 41.0727 19.0949 41.0881 18.8794 40.9649C18.9409 41.1189 18.9409 41.2266 18.8794 41.2882C18.8486 41.3498 18.8024 41.4114 18.7408 41.473C18.5868 41.4114 18.4636 41.396 18.3712 41.4268C18.3096 41.4576 18.2172 41.5038 18.0941 41.5654C18.402 41.2882 18.5868 41.1343 18.6484 41.1035C18.7408 41.0727 18.8178 41.0265 18.8794 40.9649C18.9717 40.5953 19.0641 40.3798 19.1565 40.3182C19.2489 40.2258 19.2951 40.0872 19.2951 39.9024C19.1411 39.964 18.9871 40.0102 18.8332 40.041C18.71 40.041 18.5868 40.0718 18.4636 40.1334C18.3712 40.2874 18.2326 40.4721 18.0479 40.6877C17.8631 40.8725 17.6783 41.0573 17.4935 41.242C17.3088 41.396 17.1086 41.5038 16.893 41.5654C16.7083 41.5962 16.5235 41.5038 16.3387 41.2882C16.4311 41.2266 16.4927 41.1343 16.5235 41.0111C16.5543 40.8571 16.6775 40.8109 16.893 40.8725C16.893 40.6877 16.9392 40.5183 17.0316 40.3644C17.3396 40.3644 17.4935 40.349 17.4935 40.3182C17.4935 40.2566 17.5089 40.2104 17.5397 40.1796C17.5705 39.964 17.6475 39.7638 17.7707 39.5791C17.9247 39.3635 18.1403 39.1941 18.4174 39.0709C18.6638 38.7322 18.8332 38.5166 18.9256 38.4242C19.0179 38.3318 19.0949 38.2241 19.1565 38.1009C18.8486 38.1009 18.6638 38.1625 18.6022 38.2856C18.5714 38.378 18.4944 38.3626 18.3712 38.2395C18.1249 38.5474 17.9709 38.7014 17.9093 38.7014L17.7707 39.3019C17.4935 39.3327 17.3088 39.3481 17.2164 39.3481C17.124 39.3173 17.0624 39.3327 17.0316 39.3943C17.124 39.5483 17.1086 39.6407 16.9854 39.6715C16.8622 39.6715 16.7236 39.6561 16.5697 39.6253C16.4465 39.5637 16.3233 39.4867 16.2001 39.3943C16.1077 39.2711 16.1231 39.1633 16.2463 39.0709C16.3695 39.2249 16.5697 39.2557 16.8468 39.1633C17.1548 39.0401 17.4166 39.0555 17.6321 39.2095C17.4474 38.9016 17.3858 38.7168 17.4474 38.6552C17.5089 38.5936 17.5397 38.5012 17.5397 38.378C17.4166 38.5012 17.2164 38.5166 16.9392 38.4242C17.0932 38.2702 17.2318 38.1317 17.355 38.0085C17.5089 37.8853 17.6937 37.8237 17.9093 37.8237C17.8785 37.9777 17.8323 38.0701 17.7707 38.1009C17.7091 38.1317 17.6783 38.1933 17.6783 38.2856C18.2018 38.1009 18.5098 37.9161 18.6022 37.7313C18.6946 37.5465 18.8948 37.5004 19.2027 37.5927C19.1103 37.3464 19.0641 37.1462 19.0641 36.9922C18.6946 36.8074 18.5098 36.6843 18.5098 36.6227C18.5098 36.5303 18.5098 36.4995 18.5098 36.5303C18.1403 36.6227 17.9555 36.6997 17.9555 36.7613C17.9863 36.792 17.9863 36.8382 17.9555 36.8998C17.7091 36.9614 17.4935 37.0692 17.3088 37.2232C17.1548 37.3772 16.9854 37.5311 16.8006 37.6851C16.6467 37.8391 16.4773 37.9777 16.2925 38.1009C16.1077 38.2241 15.8922 38.2702 15.6458 38.2395C15.6766 38.0855 15.615 38.0239 15.461 38.0547C15.307 38.0547 15.2301 37.9777 15.2301 37.8237C15.538 37.6697 15.7382 37.6389 15.8306 37.7313C15.923 37.8237 16.0615 37.8545 16.2463 37.8237C16.3387 37.5773 16.3849 37.4234 16.3849 37.3618C16.3849 37.2694 16.3233 37.254 16.2001 37.3156C16.1077 37.0384 16.2617 36.8844 16.6621 36.8536C16.6313 36.6381 16.6929 36.5303 16.8468 36.5303C17.0008 36.4995 17.1086 36.4379 17.1702 36.3455C17.1702 36.4995 17.124 36.6227 17.0316 36.7151C16.97 36.8074 16.9238 36.8998 16.893 36.9922L16.5235 37.408C16.6775 37.4388 16.7698 37.408 16.8006 37.3156C16.8314 37.2232 16.8776 37.1308 16.9392 37.0384C17.1856 37.1 17.3704 37.023 17.4935 36.8074C17.6167 36.5919 17.8015 36.4841 18.0479 36.4841C18.2326 36.4225 18.3558 36.3455 18.4174 36.2531C18.479 36.1299 18.5406 36.0991 18.6022 36.1607C18.787 35.8528 18.8794 35.6218 18.8794 35.4678C18.9102 35.3138 18.9256 35.1599 18.9256 35.0059C18.9256 35.0983 18.864 35.1907 18.7408 35.2831C18.6484 35.3446 18.5714 35.437 18.5098 35.5602C18.479 35.2831 18.4174 35.1753 18.325 35.2369C18.2634 35.2677 18.2326 35.2215 18.2326 35.0983C18.5098 34.8827 18.6022 34.7287 18.5098 34.6363C18.3866 34.7287 18.2634 34.7133 18.1403 34.5901C18.0479 34.4362 17.9709 34.467 17.9093 34.6825C18.0325 34.8057 18.0325 34.9443 17.9093 35.0983C17.7861 35.2523 17.6013 35.2831 17.355 35.1907C17.1394 35.437 17.0008 35.6218 16.9392 35.745C16.9084 35.8374 16.816 35.8374 16.6621 35.745C16.4157 35.899 16.2463 36.1299 16.1539 36.4379C16.0307 36.5919 15.8614 36.6843 15.6458 36.7151C15.4302 36.7151 15.2608 36.792 15.1377 36.946C14.9221 37.2848 14.7219 37.5157 14.5371 37.6389C14.3524 37.7313 14.2908 37.8391 14.3524 37.9623C14.1984 38.1163 14.0444 38.2241 13.8904 38.2856C13.7365 38.3472 13.5825 38.3934 13.4285 38.4242C13.4901 38.9786 13.6287 39.4251 13.8442 39.7638C14.0906 40.1026 14.337 40.4414 14.5833 40.7801C14.6449 40.6261 14.7373 40.5029 14.8605 40.4106C14.9837 40.2874 15.1069 40.2566 15.2301 40.3182C15.3532 40.2258 15.3994 40.1334 15.3686 40.041C15.3686 39.9178 15.4148 39.8562 15.5072 39.8562C15.8152 39.7023 16.0307 39.5791 16.1539 39.4867C16.2155 39.6099 16.2925 39.6869 16.3849 39.7177C16.5081 39.7484 16.6159 39.7946 16.7083 39.8562C16.6467 40.0102 16.5235 40.0872 16.3387 40.0872C16.1539 40.0872 16.0307 40.118 15.9692 40.1796C16.1231 40.3952 16.1077 40.5183 15.923 40.5491C15.7382 40.5491 15.6612 40.6569 15.692 40.8725C15.538 40.9033 15.384 40.9957 15.2301 41.1497C15.0761 41.2728 14.9683 41.2112 14.9067 40.9649C14.8759 41.1189 14.8759 41.2266 14.9067 41.2882C14.9375 41.3498 14.9529 41.4114 14.9529 41.473C15.1685 41.5654 15.3532 41.7194 15.5072 41.935C15.692 42.1505 15.8768 42.3507 16.0615 42.5355C16.2463 42.7202 16.4311 42.8434 16.6159 42.905C16.8314 42.9666 17.0624 42.8742 17.3088 42.6279C17.3704 42.5355 17.4474 42.4893 17.5397 42.4893C17.6321 42.4585 17.7091 42.4123 17.7707 42.3507C17.9247 42.1351 18.0171 41.9965 18.0479 41.935C18.0787 41.8734 18.1557 41.9042 18.2788 42.0273C18.248 42.0273 18.1711 42.1197 18.0479 42.3045C17.9555 42.4893 17.8169 42.5663 17.6321 42.5355C17.7861 42.7818 17.9401 42.8434 18.0941 42.7202C18.248 42.5971 18.3866 42.4893 18.5098 42.3969C18.6638 42.2737 18.8178 42.1967 18.9717 42.1659C19.1257 42.1351 19.2643 42.2121 19.3875 42.3969C19.757 42.5201 19.9572 42.5355 19.988 42.4431C20.0188 42.3199 20.0188 42.1967 19.988 42.0735C19.9572 41.9503 19.9264 41.8272 19.8956 41.704C19.8648 41.5808 19.8494 41.473 19.8494 41.3806ZM20.4499 44.337C20.0804 44.2138 19.8186 44.1369 19.6647 44.1061C19.5415 44.0753 19.4337 43.9983 19.3413 43.8751C19.0025 43.9367 18.8794 44.0137 18.9717 44.1061C19.0949 44.1984 19.2335 44.2754 19.3875 44.337C19.5415 44.3678 19.6954 44.3986 19.8494 44.4294C20.0342 44.4602 20.1882 44.5064 20.3114 44.568L20.4499 44.337ZM18.7408 43.5517C18.7408 43.3978 18.633 43.3208 18.4174 43.3208C18.2326 43.3208 18.1095 43.3054 18.0479 43.2746C18.3558 43.367 18.5252 43.4439 18.556 43.5055C18.5868 43.5363 18.6484 43.5517 18.7408 43.5517ZM18.8332 13.572C18.8024 13.6336 18.7254 13.6798 18.6022 13.7106C18.5098 13.7106 18.4328 13.7414 18.3712 13.803C18.1865 13.649 18.1865 13.5412 18.3712 13.4796C18.5868 13.3872 18.7408 13.418 18.8332 13.572ZM16.893 14.1263C16.6775 14.2187 16.5081 14.2803 16.3849 14.3111C16.5081 14.2803 16.6005 14.2187 16.6621 14.1263C16.7236 14.0339 16.8006 14.0339 16.893 14.1263ZM14.029 15.0502C13.9674 15.2042 13.8596 15.3581 13.7057 15.5121C13.5825 15.6353 13.4439 15.6661 13.2899 15.6045C13.5363 15.2966 13.7826 15.1118 14.029 15.0502ZM17.4935 19.1152C17.0624 19.0844 16.8006 19.1922 16.7083 19.4386C16.6467 19.2538 16.6775 19.0998 16.8006 18.9767C16.9546 18.8535 17.1548 18.8073 17.4012 18.8381L17.4935 19.1152ZM14.9067 17.7294C14.8451 17.8218 14.7835 17.8988 14.7219 17.9604C14.6911 18.022 14.6449 18.0836 14.5833 18.1452C14.337 17.868 14.2754 17.7294 14.3986 17.7294C14.5525 17.6986 14.6603 17.6062 14.7219 17.4523L14.9067 17.7294ZM16.5235 19.6234C16.2155 19.7774 16.0153 19.8851 15.923 19.9467C15.8306 20.0083 15.7844 20.1161 15.7844 20.2701C15.846 19.8389 16.0923 19.6234 16.5235 19.6234ZM15.7382 18.5147C15.4918 18.6071 15.2147 18.7611 14.9067 18.9767C14.6295 19.1922 14.3678 19.3924 14.1214 19.5772C14.0598 19.5156 14.029 19.4232 14.029 19.3C14.029 19.1768 13.9674 19.0998 13.8442 19.069C14.0598 18.9767 14.183 18.8535 14.2138 18.6995C14.4602 18.7303 14.6141 18.6687 14.6757 18.5147C14.7681 18.3299 14.9221 18.2222 15.1377 18.1914C15.5688 18.3145 15.769 18.4223 15.7382 18.5147ZM16.4773 21.5173C16.3849 21.4557 16.2925 21.4557 16.2001 21.5173C16.1077 21.5789 16.0153 21.5789 15.923 21.5173C15.9845 21.3325 16.0307 21.2248 16.0615 21.194C16.1231 21.1324 16.2309 21.117 16.3849 21.1478L16.4773 21.5173ZM16.0153 21.7483C15.769 21.8715 15.615 21.9331 15.5534 21.9331C15.5226 21.9023 15.4764 21.9177 15.4148 21.9793C15.4148 22.1332 15.3224 22.2256 15.1377 22.2564C14.9837 22.2872 14.8451 22.3334 14.7219 22.395C14.7219 22.241 14.7527 22.1486 14.8143 22.1178C14.8759 22.0562 14.9221 21.9639 14.9529 21.8407C15.1993 21.9331 15.3378 21.9331 15.3686 21.8407C15.3994 21.7483 15.461 21.7483 15.5534 21.8407L16.0153 21.7483ZM14.9067 20.9168C14.5987 21.1016 14.414 21.2556 14.3524 21.3787C14.2908 21.4711 14.2292 21.4249 14.1676 21.2402C14.3832 20.963 14.5217 20.8398 14.5833 20.8706C14.6449 20.9014 14.7527 20.9168 14.9067 20.9168ZM14.8143 22.626C14.5371 22.6568 14.3216 22.8415 14.1676 23.1803C14.0136 23.1495 13.9058 23.1803 13.8442 23.2727C13.8134 23.3343 13.7519 23.3805 13.6595 23.4113C13.4747 23.1957 13.3977 23.0725 13.4285 23.0417C13.4901 23.0109 13.5517 22.9955 13.6133 22.9955C13.6749 22.9955 13.7211 22.9801 13.7519 22.9493C13.8134 22.9185 13.8442 22.8415 13.8442 22.7184C14.029 22.7491 14.1368 22.6722 14.1676 22.4874C14.1984 22.3026 14.337 22.2256 14.5833 22.2564L14.8143 22.626ZM18.6946 29.4164C18.3866 29.3549 18.2326 29.3087 18.2326 29.2779C18.2634 29.2471 18.2788 29.1701 18.2788 29.0469C18.402 29.0777 18.479 29.1393 18.5098 29.2317C18.5714 29.2933 18.633 29.3549 18.6946 29.4164ZM17.9093 28.1692C17.8169 28.3848 17.7091 28.4926 17.5859 28.4926C17.4935 28.4926 17.4627 28.5696 17.4935 28.7235C17.3704 28.6927 17.1856 28.7235 16.9392 28.8159C17.124 28.508 17.2626 28.3232 17.355 28.2616C17.4781 28.1692 17.6321 28.123 17.8169 28.123L17.9093 28.1692ZM16.1539 27.7997C15.9999 28.0768 15.8768 28.2308 15.7844 28.2616C15.692 28.2924 15.5996 28.3232 15.5072 28.354C15.4148 28.354 15.3224 28.3694 15.2301 28.4002C15.1685 28.431 15.1377 28.508 15.1377 28.6312C14.7373 28.7235 14.5217 28.7235 14.491 28.6312C14.8297 28.5696 15.1069 28.4464 15.3224 28.2616C15.538 28.046 15.8152 27.8921 16.1539 27.7997ZM18.3712 29.7398C18.3404 29.8322 18.2788 29.8938 18.1865 29.9246C18.0941 29.9246 18.0017 29.94 17.9093 29.9708C17.8169 29.9708 17.7245 30.0016 17.6321 30.0632C17.5705 30.094 17.5551 30.1709 17.5859 30.2941C17.3088 30.4481 17.0778 30.6021 16.893 30.7561C16.7083 30.8792 16.5235 31.0178 16.3387 31.1718C16.3387 30.8638 16.4157 30.6483 16.5697 30.5251C16.7544 30.4019 16.9238 30.2479 17.0778 30.0632C17.3242 29.9708 17.5243 29.8938 17.6783 29.8322C17.8323 29.7398 18.0633 29.709 18.3712 29.7398ZM18.325 30.6637C18.0787 30.8485 17.8477 30.8946 17.6321 30.8023C17.6013 31.1102 17.5397 31.2334 17.4474 31.1718C17.3858 31.1102 17.3396 31.1872 17.3088 31.4028C17.1856 31.372 17.0932 31.3412 17.0316 31.3104C16.97 31.2796 16.9392 31.1872 16.9392 31.0332C17.1548 31.0024 17.3088 30.9254 17.4012 30.8023C17.5243 30.6791 17.6475 30.5559 17.7707 30.4327C17.8631 30.4635 17.9401 30.5097 18.0017 30.5713C18.0633 30.6329 18.1711 30.6637 18.325 30.6637ZM17.9555 28.9083C17.7091 29.0931 17.4474 29.2625 17.1702 29.4164C16.893 29.5396 16.7236 29.7398 16.6621 30.017C16.4157 30.2017 16.2309 30.3557 16.1077 30.4789C15.9845 30.5713 15.846 30.6637 15.692 30.7561C15.384 30.5405 15.1685 30.4173 15.0453 30.3865C14.9221 30.3557 14.8759 30.2633 14.9067 30.1094C15.0607 30.0786 15.1993 30.0478 15.3224 30.017C15.4456 29.9554 15.5842 29.9092 15.7382 29.8784C15.8614 29.6012 15.9845 29.401 16.1077 29.2779C16.2617 29.1547 16.3849 29.0161 16.4773 28.8621C16.7236 28.9237 16.97 28.9237 17.2164 28.8621C17.4627 28.8005 17.7091 28.8159 17.9555 28.9083ZM18.1403 33.9896C17.8015 34.0512 17.6013 34.0974 17.5397 34.1282C17.4781 34.159 17.4166 34.1898 17.355 34.2206C17.3858 34.0666 17.4474 33.9742 17.5397 33.9434C17.6629 33.9126 17.7553 33.851 17.8169 33.7587L18.1403 33.9896ZM15.2301 31.1256C15.0145 31.064 14.8759 31.0948 14.8143 31.218C14.7527 31.3104 14.6449 31.3874 14.491 31.449C14.2446 31.4798 14.0752 31.4644 13.9828 31.4028C13.8904 31.3412 13.8134 31.295 13.7519 31.2642C13.7826 31.1102 13.8442 31.0178 13.9366 30.987C14.029 30.9254 14.1368 30.8792 14.26 30.8485C14.3524 30.7561 14.414 30.6483 14.4448 30.5251C14.5063 30.3711 14.6141 30.2941 14.7681 30.2941C14.9221 30.6021 14.9683 30.7715 14.9067 30.8023L15.2301 31.1256ZM18.325 35.514C18.1403 35.668 18.0171 35.8066 17.9555 35.9298C17.8939 36.0529 17.7861 36.0683 17.6321 35.976C17.5089 36.0683 17.4935 36.0375 17.5859 35.8836C17.6783 35.7296 17.8477 35.668 18.0941 35.6988L18.325 35.514ZM18.2788 37.2232C18.2788 37.5004 18.1403 37.6081 17.8631 37.5465C17.9247 37.331 18.0633 37.2232 18.2788 37.2232ZM16.893 38.7476C16.7698 38.7476 16.6621 38.7938 16.5697 38.8862C16.4773 38.9478 16.4003 38.9478 16.3387 38.8862C16.4311 38.7014 16.6159 38.5782 16.893 38.5166V38.7476ZM15.8768 38.4242C15.5996 38.7014 15.4148 38.8554 15.3224 38.8862C15.2301 38.8862 15.1993 38.9478 15.2301 39.0709C15.0453 39.1633 14.9221 39.2249 14.8605 39.2557C14.8297 39.2557 14.8143 39.3327 14.8143 39.4867C14.4756 39.5483 14.3062 39.5329 14.3062 39.4405C14.3062 39.3173 14.2446 39.2711 14.1214 39.3019C14.1214 38.9016 14.2292 38.7014 14.4448 38.7014C14.414 38.5166 14.5063 38.3934 14.7219 38.3318C14.9375 38.2395 15.0915 38.1163 15.1839 37.9623C15.1531 38.2087 15.2147 38.3318 15.3686 38.3318C15.5534 38.301 15.7228 38.3318 15.8768 38.4242Z" fill="white"/>
</g>
<g clip-path="url(#clip1_109_280)">
<path d="M36.1606 10.2435C36.1368 10.2435 36.1131 10.2435 36.0894 10.2376C36.0122 10.2136 35.9411 10.166 35.8936 10.1002C35.8462 10.0346 35.8344 9.95097 35.858 9.86138L36.9496 5.34021L37.1157 5.36404C37.2047 5.37595 37.2937 5.39382 37.3827 5.41181L37.5607 5.45362L36.4632 10.0047C36.4275 10.1419 36.3029 10.2435 36.1606 10.2435Z" fill="#FF5A5A"/>
<path d="M37.0867 5.5434C37.1639 5.54936 37.2529 5.57319 37.33 5.58522L36.274 9.95117C36.2622 10.0109 36.2088 10.0467 36.1494 10.0467H36.1197C36.0544 10.0348 36.0129 9.95713 36.0248 9.89744L37.0867 5.5434ZM36.8078 5.13135L36.7307 5.45382L35.6806 9.80775C35.6509 9.93914 35.6747 10.0765 35.74 10.1839C35.8111 10.2975 35.918 10.381 36.0485 10.4109C36.0841 10.4168 36.1256 10.4228 36.1613 10.4228C36.3926 10.4228 36.5943 10.2615 36.6418 10.0406L37.6978 5.67468L37.7868 5.31028L37.4248 5.2207C37.3299 5.19687 37.2291 5.17888 37.1401 5.17293L36.8078 5.13135Z" fill="#4C2F1B"/>
<path d="M39.2995 10.8288H34.9034C34.8382 10.8288 34.7788 10.769 34.7788 10.7034V3.0406C34.7788 2.97496 34.8381 2.91516 34.9034 2.91516H39.2995C39.3648 2.91516 39.4241 2.97496 39.4241 3.0406V10.7034C39.4241 10.7751 39.3707 10.8288 39.2995 10.8288Z" fill="white"/>
<path d="M34.7905 6.27193C34.7905 6.27193 36.1135 5.18491 37.484 5.62698C38.8543 6.06894 39.4299 5.52537 39.4299 5.52537V10.4288C39.4299 10.6558 39.2519 10.829 39.0324 10.829H35.188C34.9626 10.829 34.7905 10.6498 34.7905 10.4288V6.27193Z" fill="#FFFDAB"/>
<path d="M36.1606 10.2435C36.1368 10.2435 36.1131 10.2435 36.0894 10.2375C36.0122 10.2136 35.9411 10.1659 35.8936 10.1002C35.8462 10.0345 35.8344 9.95089 35.858 9.86131L37.8277 1.72062C37.8574 1.61901 37.9286 1.5355 38.0294 1.49369L39.9991 0.830756C40.0347 0.818726 40.0643 0.818726 40.0999 0.818726C40.2364 0.818726 40.3491 0.908308 40.3966 1.02779C40.4263 1.10546 40.4204 1.19504 40.3847 1.26676C40.3491 1.33835 40.2839 1.39815 40.2068 1.42805L38.3973 2.0313L36.4633 10.0046C36.4275 10.1419 36.3029 10.2435 36.1606 10.2435Z" fill="#FF5A5A"/>
<path d="M40.0883 1.00425C40.1357 1.00425 40.1891 1.0401 40.201 1.09383C40.2247 1.15947 40.1892 1.23118 40.1239 1.25512L38.2195 1.90019L36.2736 9.96297C36.2617 10.0228 36.2083 10.0585 36.1489 10.0585H36.1192C36.0539 10.0466 36.0124 9.96893 36.0243 9.90924L38.0059 1.76272C38.0118 1.72091 38.0474 1.69112 38.0831 1.67314L40.0527 1.0102C40.0586 1.00425 40.0764 1.00425 40.0883 1.00425ZM40.0883 0.62793C40.0408 0.62793 39.9814 0.633886 39.9281 0.657829L37.9585 1.32076C37.7923 1.38045 37.6736 1.50589 37.638 1.67314L35.6743 9.80775C35.6091 10.0765 35.7753 10.3512 36.0422 10.417C36.0778 10.4229 36.1194 10.4289 36.1549 10.4289C36.3862 10.4289 36.588 10.2676 36.6354 10.0466L38.5398 2.18073L40.2484 1.60142C40.3789 1.55961 40.4797 1.47003 40.5331 1.35055C40.5924 1.22511 40.6042 1.09967 40.5628 0.968273C40.4917 0.765282 40.3078 0.62793 40.0883 0.62793Z" fill="#4C2F1B"/>
<path d="M39.2161 11.1394H34.9922C34.7074 11.1394 34.4761 10.9065 34.4761 10.6198V3.13022C34.4761 2.8436 34.7075 2.6106 34.9922 2.6106H39.2163C39.5011 2.6106 39.7324 2.84349 39.7324 3.13022V10.6198C39.7323 10.9065 39.501 11.1394 39.2161 11.1394ZM35.099 10.5183H39.1153V3.23779H35.099V10.5183Z" fill="#4C2F1B"/>
<path d="M38.7174 10.0165L38.3319 10.1598C38.2963 10.1718 38.2429 10.1539 38.231 10.118L38.0886 9.7298C38.0768 9.69394 38.0946 9.64021 38.1302 9.6283L38.5157 9.48499C38.5513 9.47296 38.6047 9.49095 38.6166 9.52681L38.759 9.91504C38.7768 9.96281 38.7531 10.0046 38.7174 10.0165ZM37.0386 9.98079L37.0504 9.65832C37.0504 9.62842 37.0801 9.61055 37.1097 9.61055L37.43 9.62246C37.4597 9.62246 37.4775 9.65236 37.4775 9.68214L37.4655 10.0046C37.4655 10.0345 37.4359 10.0524 37.4062 10.0524L37.0859 10.0405C37.0563 10.0405 37.0386 10.0106 37.0386 9.98079ZM37.703 9.45521L37.436 9.27604C37.4242 9.26413 37.4124 9.24019 37.4301 9.22827L37.6081 8.95953C37.6199 8.94761 37.6437 8.9357 37.6555 8.95357L37.9225 9.13274C37.9343 9.14465 37.9463 9.16859 37.9284 9.1805L37.7504 9.44925C37.7386 9.46117 37.7207 9.46712 37.703 9.45521Z" fill="#FFEE88"/>
<path d="M38.5043 8.11748H38.344C38.2848 8.11748 38.2373 8.06971 38.2373 8.01003V6.43924C38.2373 6.37956 38.2848 6.33179 38.344 6.33179H38.5043C38.5635 6.33179 38.611 6.37956 38.611 6.43924V8.01003C38.611 8.06971 38.5575 8.11748 38.5043 8.11748Z" fill="white"/>
<path d="M36.1606 10.2435C36.1368 10.2435 36.1131 10.2435 36.0894 10.2376C36.0122 10.2136 35.9411 10.166 35.8936 10.1002C35.8462 10.0346 35.8344 9.95097 35.858 9.86138L36.9496 5.34021L37.1157 5.36404C37.2047 5.37595 37.2937 5.39382 37.3827 5.41181L37.5607 5.45362L36.4632 10.0047C36.4275 10.1419 36.3029 10.2435 36.1606 10.2435Z" fill="#FFB69C"/>
<path d="M37.0867 5.5434C37.1639 5.54936 37.2529 5.57319 37.33 5.58522L36.274 9.95117C36.2622 10.0109 36.2088 10.0467 36.1494 10.0467H36.1197C36.0544 10.0348 36.0129 9.95713 36.0248 9.89744L37.0867 5.5434ZM36.8078 5.13135L36.7307 5.45382L35.6806 9.80775C35.6509 9.93914 35.6747 10.0765 35.74 10.1839C35.8111 10.2975 35.918 10.381 36.0485 10.4109C36.0841 10.4168 36.1256 10.4228 36.1613 10.4228C36.3926 10.4228 36.5943 10.2615 36.6418 10.0406L37.6978 5.67468L37.7868 5.31028L37.4248 5.2207C37.3299 5.19687 37.2291 5.17888 37.1401 5.17293L36.8078 5.13135Z" fill="#4C2F1B"/>
<path d="M38.2373 8.62506C38.2373 8.72738 38.3197 8.81018 38.4213 8.81018C38.5228 8.81018 38.6052 8.72738 38.6052 8.62506C38.6052 8.52287 38.5228 8.43994 38.4213 8.43994C38.3197 8.43994 38.2373 8.52275 38.2373 8.62506Z" fill="white"/>
<path d="M39.0263 11.1395H35.1879C34.8023 11.1395 34.4761 10.823 34.4761 10.4228V6.2719C34.4761 6.17636 34.5176 6.09274 34.5888 6.02698C34.6481 5.97921 36.06 4.83847 37.567 5.32819C38.7179 5.69843 39.1925 5.30436 39.2103 5.28638C39.3052 5.1968 39.4358 5.18477 39.5426 5.2267C39.6553 5.27446 39.7265 5.39395 39.7265 5.51343V10.4169C39.7323 10.823 39.4179 11.1395 39.0263 11.1395ZM35.099 6.4332V10.4228C35.099 10.4706 35.1346 10.5124 35.1879 10.5124H39.0324C39.0798 10.5124 39.1214 10.4706 39.1214 10.4228V6.02698C38.7536 6.13455 38.1899 6.18828 37.389 5.92549C36.416 5.61493 35.4311 6.20615 35.099 6.4332Z" fill="#4C2F1B"/>
<path d="M33.913 3.69732C34.3971 4.18483 35.1823 4.18483 35.6665 3.69732C36.1507 3.20981 36.1507 2.41946 35.6665 1.93195C35.1823 1.44456 34.3971 1.44456 33.913 1.93195C33.4287 2.41946 33.4287 3.20981 33.913 3.69732Z" fill="#FFFA94"/>
<path d="M34.8259 2.41385H34.7487C34.719 2.41385 34.7013 2.39002 34.7013 2.36608V2.09733C34.7013 2.06743 34.7249 2.04956 34.7487 2.04956H34.8259C34.8556 2.04956 34.8733 2.0735 34.8733 2.09733V2.36608C34.8733 2.3899 34.8555 2.41385 34.8259 2.41385ZM34.3868 2.77813V2.8558C34.3868 2.8857 34.3631 2.90357 34.3393 2.90357H34.0724C34.0427 2.90357 34.0249 2.87963 34.0249 2.8558V2.77813C34.0249 2.74823 34.0487 2.73036 34.0724 2.73036H34.3393C34.369 2.72441 34.3868 2.74823 34.3868 2.77813ZM34.7487 3.21413H34.8259C34.8556 3.21413 34.8733 3.23808 34.8733 3.2619V3.53065C34.8733 3.56055 34.8495 3.57842 34.8259 3.57842H34.7487C34.719 3.57842 34.7013 3.55448 34.7013 3.53065V3.2619C34.6954 3.23808 34.719 3.21413 34.7487 3.21413ZM35.1877 2.8558V2.77813C35.1877 2.74823 35.2115 2.73036 35.2352 2.73036H35.5021C35.5318 2.73036 35.5496 2.75419 35.5496 2.77813V2.8558C35.5496 2.8857 35.5259 2.90357 35.5021 2.90357H35.2352C35.2056 2.91549 35.1877 2.88559 35.1877 2.8558Z" fill="#242424"/>
<path d="M34.7906 4.24731C34.4109 4.24731 34.049 4.09793 33.7761 3.82918C33.5032 3.55448 33.3608 3.19019 33.3608 2.80792C33.3608 2.42565 33.5091 2.06136 33.7762 1.78654C34.049 1.51183 34.411 1.36841 34.7907 1.36841C35.1705 1.36841 35.5323 1.51779 35.8052 1.78654C36.0782 2.06136 36.2205 2.42565 36.2205 2.80792C36.2205 3.19019 36.0723 3.55448 35.8052 3.8293C35.5322 4.10389 35.1703 4.24731 34.7906 4.24731ZM34.7906 1.75675C34.5176 1.75675 34.2508 1.85837 34.0431 2.06732C33.6337 2.47937 33.6337 3.16029 34.0431 3.57235C34.4524 3.98441 35.1288 3.98441 35.5381 3.57235C35.9474 3.16029 35.9474 2.47937 35.5381 2.06732C35.3304 1.85825 35.0576 1.75675 34.7906 1.75675Z" fill="#4C2F1B"/>
</g>
</g>
<defs>
<filter id="filter0_d_109_280" x="3.3174" y="10.2461" width="43.8276" height="41.3331" filterUnits="userSpaceOnUse" color-interpolation-filters="sRGB">
<feFlood flood-opacity="0" result="BackgroundImageFix"/>
<feColorMatrix in="SourceAlpha" type="matrix" values="0 0 0 0 0 0 0 0 0 0 0 0 0 0 0 0 0 0 127 0" result="hardAlpha"/>
<feOffset dy="2.62791"/>
<feGaussianBlur stdDeviation="1.31396"/>
<feComposite in2="hardAlpha" operator="out"/>
<feColorMatrix type="matrix" values="0 0 0 0 0 0 0 0 0 0 0 0 0 0 0 0 0 0 0.25 0"/>
<feBlend mode="normal" in2="BackgroundImageFix" result="effect1_dropShadow_109_280"/>
<feBlend mode="normal" in="SourceGraphic" in2="effect1_dropShadow_109_280" result="shape"/>
</filter>
<clipPath id="clip0_109_280">
<rect width="50" height="50" fill="white"/>
</clipPath>
<clipPath id="clip1_109_280">
<rect width="7.22675" height="10.5116" fill="white" transform="translate(33.3608 0.62793)"/>
</clipPath>
</defs>
</svg>
